<svg width="72" height="72" viewBox="0 0 72 72" fill="none" xmlns="http://www.w3.org/2000/svg">
<path d="M68.0027 50.1754C65.6582 52.5353 63.4188 54.7895 61.0393 57.1846C58.345 54.1203 55.5456 50.9151 52.6413 47.6395C47.4625 50.5981 42.0738 51.3378 36.4401 49.3301C32.2761 47.8508 29.0568 45.1739 26.7824 41.3699C22.1984 33.7267 23.6681 23.7941 30.2815 17.8064C36.86 11.8186 46.8676 11.396 53.936 16.7849C60.5145 21.7865 64.0836 31.6839 58.5549 41.7221C61.7042 44.5399 64.9234 47.3929 68.0027 50.1754ZM42.7036 17.9473C35.1104 17.9473 29.0568 24.0407 29.0218 31.6839C29.0218 39.2918 35.1104 45.4909 42.6336 45.5614C50.2269 45.5966 56.4904 39.2918 56.4554 31.6486C56.4204 24.0407 50.2968 17.912 42.7036 17.9473Z" fill="#005976"/>
<path fill-rule="evenodd" clip-rule="evenodd" d="M21.2283 31.9303L20.4136 30.156C19.767 28.7268 18.3719 28.0122 16.9767 28.0122C15.5476 28.0122 14.1524 28.7268 13.5059 30.156L3.36564 52.24C3.1955 52.5803 3.12744 52.9205 3.12744 53.2268C3.12744 54.5198 4.38647 55.3705 5.61147 55.3705C6.49619 55.3705 7.38091 54.9622 7.82327 53.9754L10.4434 48.1907H23.408L26.0962 53.9754C26.5386 54.9622 27.4233 55.3705 28.308 55.3705C29.533 55.3705 30.792 54.5198 30.792 53.2268C30.792 52.9205 30.724 52.5803 30.5538 52.24L28.6649 48.1262C26.9676 46.6507 25.5083 44.8895 24.2945 42.8598C22.2612 39.4688 21.2589 35.6903 21.2283 31.9303ZM12.4851 43.665H21.4004L16.9427 33.865L12.4851 43.665Z" fill="#4C3C33"/>
<path d="M42.6341 45.8784C50.4609 45.8784 56.8057 39.4917 56.8057 31.6134C56.8057 23.7351 50.4609 17.3485 42.6341 17.3485C34.8073 17.3485 28.4624 23.7351 28.4624 31.6134C28.4624 39.4917 34.8073 45.8784 42.6341 45.8784Z" fill="#74BDF7"/>
<path d="M31.2266 30.1341C31.5065 27.2811 32.3113 24.7099 34.4108 22.8432C35.2856 22.0683 36.7203 21.5047 37.875 21.5752C39.9045 21.6808 40.4994 23.301 39.1697 24.8508C37.6301 26.6471 36.6853 28.5139 36.8952 30.909C37.0702 32.6349 36.5453 33.9029 34.5858 34.0438C32.7662 34.1847 31.5765 33.1984 31.2965 31.1908C31.2616 30.8386 31.2616 30.4511 31.2266 30.1341Z" fill="white"/>
<path d="M37.3152 41.2995C35.1457 41.2291 33.2562 39.6793 32.9413 38.2C32.8713 37.9534 32.8013 37.4955 32.8713 37.4603C33.921 37.0024 34.9358 36.2628 36.0205 36.2275C37.4202 36.1571 39.5197 38.4465 39.0648 39.5032C38.7149 40.3485 37.7001 40.9121 37.3152 41.2995Z" fill="white"/>
</svg>
