<svg width="72" height="72" viewBox="0 0 72 72" fill="none" xmlns="http://www.w3.org/2000/svg">
<path d="M30.0689 49.1378V55.3369C30.0689 55.7243 29.754 56.0061 29.404 56.0061H7.63915C7.25424 56.0061 6.9743 55.6891 6.9743 55.3369V27.0183C6.9743 26.6309 7.28923 26.3491 7.63915 26.3491H21.9158C22.1957 25.3277 22.5107 24.3414 22.9306 23.3904H7.63915C5.64461 23.3552 4 25.0107 4 27.0183V55.3369C4 57.3445 5.64461 58.9999 7.63915 58.9999H29.404C31.3986 58.9999 33.0432 57.3445 33.0432 55.3369V50.9341C31.9934 50.441 31.0137 49.807 30.0689 49.1378Z" fill="#483832"/>
<path d="M24.6798 49.3138H12.3627C11.5579 49.3138 10.8931 49.9831 10.8931 50.7932C10.8931 51.6033 11.5579 52.2725 12.3627 52.2725H24.6448C25.4497 52.2725 26.1145 51.6033 26.1145 50.7932C26.1495 49.9831 25.4846 49.3138 24.6798 49.3138Z" fill="#483832"/>
<path d="M21.7755 36.493H12.3627C11.5579 36.493 10.8931 37.1623 10.8931 37.9724C10.8931 38.7825 11.5579 39.4517 12.3627 39.4517H22.6503C22.3004 38.5007 22.0205 37.5145 21.7755 36.493Z" fill="#483832"/>
<path d="M21.2506 31.7028C21.2506 31.1392 21.2856 30.6109 21.3206 30.0474H12.3627C11.5579 30.0474 10.8931 30.7166 10.8931 31.5267C10.8931 32.3368 11.5579 33.006 12.3627 33.006H21.2856C21.2506 32.5834 21.2506 32.1607 21.2506 31.7028Z" fill="#483832"/>
<path d="M24.3649 42.9034H12.3627C11.5579 42.9034 10.8931 43.5727 10.8931 44.3828C10.8931 45.1929 11.5579 45.8621 12.3627 45.8621H24.6448C25.1697 45.8621 25.6596 45.5803 25.9045 45.1224C25.3447 44.418 24.8198 43.6783 24.3649 42.9034Z" fill="#483832"/>
<path d="M68.0003 50.1592C65.6558 52.5191 63.4163 54.7733 61.0369 57.1684C58.3425 54.1041 55.5432 50.8989 52.6389 47.6232C47.4601 50.5819 42.0713 51.3215 36.4376 49.3139C32.2736 47.8345 29.0544 45.1577 26.7799 41.3537C22.196 33.7105 23.6656 23.7779 30.2791 17.7901C36.8576 11.8024 46.8652 11.3797 53.9336 16.7687C60.512 21.7702 64.0812 31.6676 58.5525 41.7059C61.7017 44.5237 64.921 47.3767 68.0003 50.1592ZM42.7012 17.931C35.108 17.931 29.0544 24.0244 29.0194 31.6676C29.0194 39.2756 35.108 45.4747 42.6312 45.5451C50.2244 45.5803 56.488 39.2756 56.453 31.6324C56.418 24.0244 50.2944 17.8958 42.7012 17.931Z" fill="#005976"/>
<path d="M42.6311 45.8621C50.4579 45.8621 56.8028 39.4755 56.8028 31.5972C56.8028 23.7189 50.4579 17.3323 42.6311 17.3323C34.8043 17.3323 28.4595 23.7189 28.4595 31.5972C28.4595 39.4755 34.8043 45.8621 42.6311 45.8621Z" fill="#74BDF7"/>
<path d="M31.2241 30.1179C31.5041 27.2649 32.3089 24.6937 34.4084 22.8269C35.2832 22.052 36.7178 21.4885 37.8726 21.5589C39.9021 21.6646 40.4969 23.2848 39.1673 24.8346C37.6276 26.6309 36.6828 28.4977 36.8928 30.8928C37.0677 32.6186 36.5429 33.8866 34.5833 34.0275C32.7638 34.1684 31.574 33.1822 31.2941 31.1745C31.2591 30.8223 31.2591 30.4349 31.2241 30.1179Z" fill="white"/>
<path d="M37.3123 41.2833C35.1428 41.2128 33.2533 39.6631 32.9383 38.1837C32.8683 37.9372 32.7984 37.4793 32.8683 37.4441C33.9181 36.9862 34.9329 36.2465 36.0176 36.2113C37.4173 36.1409 39.5168 38.4303 39.0619 39.487C38.712 40.3323 37.6972 40.8958 37.3123 41.2833Z" fill="white"/>
</svg>
