<svg width="32" height="32" viewBox="0 0 32 32" xmlns="http://www.w3.org/2000/svg"><path d="M5 24.64c.779-1.167 1.945-3.89 2.334-7.001.39-3.11 1.166-5.832 2.722-7.387 1.555-1.556 3.5-2.335 5.831-2.335 2.375 0 5.443 1.166 5.832 3.5C22.885 9.086 23.275 7.334 23.664 5c.776.39 2.138 1.362 2.721 1.749-1.555 1.555-2.72 3.11-3.89 5.055 2.335-.39 5.056 1.945 5.056 5.832 0 2.915-.776 5.832-3.887 7-.064.024.927-.818.776-2.334-.193-1.945-1.555-3.11-3.5-3.11s-3.693 1.555-3.693 3.693c0 2.332 1.748 3.304 3.693 3.304-3.108 1.56-11.663.785-15.94-1.55z" fill="#6E6722"/></svg>