<?xml version="1.0" standalone="no"?>
<!DOCTYPE svg PUBLIC "-//W3C//DTD SVG 20010904//EN"
 "http://www.w3.org/TR/2001/REC-SVG-20010904/DTD/svg10.dtd">
<svg version="1.0" xmlns="http://www.w3.org/2000/svg"
 width="64.000000pt" height="64.000000pt" viewBox="0 0 64.000000 64.000000"
 preserveAspectRatio="xMidYMid meet">

<g transform="translate(0.000000,64.000000) scale(0.100000,-0.100000)"
fill="#000000" stroke="none">
<path d="M232 489 c-56 -28 -94 -84 -100 -148 -6 -68 12 -113 63 -160 49 -45
75 -52 75 -21 0 13 -7 20 -20 20 -10 0 -25 7 -32 15 -7 9 -19 23 -27 31 -21
24 -7 26 22 3 28 -21 57 -23 64 -3 2 7 -8 14 -21 18 -38 9 -59 48 -52 93 3 21
7 49 8 62 3 24 4 24 108 24 104 0 105 0 108 -24 1 -13 5 -41 8 -62 7 -44 -14
-84 -50 -93 -21 -5 -23 -10 -18 -52 2 -26 6 -48 7 -50 7 -8 65 30 88 57 34 41
50 94 44 147 -14 128 -156 202 -275 143z"/>
</g>
</svg>
