<svg width="24" height="24" viewBox="0 0 24 24" fill="currentColor" xmlns="http://www.w3.org/2000/svg"><path d="M20.087 12.744l-.062.041c.274.493.487 1.007.638 1.542.164.52.246 1.055.246 1.603 0 1.083-.267 1.987-.801 2.713a5.634 5.634 0 01-2.035 1.707c-.836.438-1.782.746-2.837.925a18.376 18.376 0 01-3.104.267c-1.096 0-2.172-.082-3.227-.247-1.042-.164-1.974-.459-2.796-.884a5.248 5.248 0 01-1.994-1.706c-.493-.726-.74-1.651-.74-2.775 0-.877.199-1.74.596-2.59a8.59 8.59 0 011.603-2.323 9.707 9.707 0 012.323-1.809 8.984 8.984 0 012.775-1.048c-.013-.192.041-.466.165-.822l.144-.288a.78.78 0 01.164-.247c.15-.15.288-.247.411-.288a.699.699 0 01.35-.061h.02c-.082-.877-.055-1.57.082-2.076.151-.508.405-.953.761-1.337a2.17 2.17 0 01.802-.534 3.286 3.286 0 012.055-.165c.343.083.644.213.905.391.178.15.343.315.493.493.11.151.206.343.288.576.082.22.09.473.02.76.425 0 .747.11.967.33.233.219.39.41.473.575.068.123.143.288.226.493.082.206.123.425.123.658 0 .22-.062.446-.185.679-.11.232-.329.445-.658.637l-.246.144c-.028 0-.042.006-.042.02-.137.055-.274.09-.41.103-.138.014-.261.027-.37.041.013.014.02.123.02.329v.02c0 .014-.007.021-.02.021.273.15.568.329.883.535.315.205.59.418.822.637.124.11.26.26.412.452.164.178.321.363.472.555.165.192.302.377.411.555.124.165.206.288.247.37a.907.907 0 010 .658 1.077 1.077 0 01-.123.185.725.725 0 01-.247.185zm-6.126 1.233c.124-.068.172-.164.144-.288-.013-.137-.089-.226-.226-.267a15.828 15.828 0 01-.514-.185 21.8 21.8 0 01-.637-.267c-.22-.096-.418-.178-.596-.247a3.342 3.342 0 01-.329-.164c-.069-.027-.123-.096-.165-.206l-.082-.267a15.78 15.78 0 00-.144-.452 4.763 4.763 0 00-.144-.473 2.673 2.673 0 00-.123-.39c-.027-.11-.103-.179-.226-.206a.36.36 0 00-.329.082l-1.603 1.418c-.082.096-.171.144-.267.144l-1.912.226c-.15.028-.254.09-.308.185-.042.083-.035.186.02.309l.185.37c.082.15.165.308.247.473.082.15.157.294.226.431.068.124.116.206.144.247.013.055 0 .158-.041.308l-.144.555c-.055.247-.117.514-.185.802-.069.274-.124.528-.165.76-.04.234-.055.378-.04.432a.184.184 0 00.102.124c.055.013.11.006.164-.02l.412-.165.657-.268c.233-.096.453-.185.658-.267.22-.082.37-.13.452-.144.192-.04.377.007.555.144.041.028.137.096.288.206.165.11.343.233.535.37.205.137.397.267.575.39.178.11.302.185.37.226a.223.223 0 00.185.042.47.47 0 00.185-.103c.028-.028.048-.137.062-.33a4.53 4.53 0 00.041-.636c.014-.247.02-.48.02-.7v-.513a.547.547 0 01.206-.411c.041-.041.13-.117.267-.226.151-.11.316-.226.494-.35.178-.137.356-.267.534-.39.178-.124.329-.226.452-.309zm5.057-1.418l.72-.473c.054-.014.068-.048.04-.103a1.315 1.315 0 00-.184-.267 6.88 6.88 0 00-.35-.452 7.84 7.84 0 00-.431-.514 3.937 3.937 0 00-.925-.822 5.766 5.766 0 00-.597-.411 5.775 5.775 0 00-.534-.309 2.252 2.252 0 00-.37-.185c.014 0 .02-.007.02-.02 0-.041.007-.069.021-.083v-.04l.062-.35c.014-.123 0-.206-.041-.247-.069-.068-.227-.116-.473-.144a.886.886 0 00-.165-.02c-.027-.014-.034-.02-.02-.02h-.041c-.151-.028-.247-.028-.288 0v.02a16.304 16.304 0 00-.617-.206l-.658-.205a12.486 12.486 0 00-1.52-.39c-.44-.097-.693-.145-.761-.145-.069 0-.144.048-.226.144-.041.027-.096.123-.165.288-.027.096-.062.212-.103.35-.027.136-.027.225 0 .267.028.04.124.095.288.164.165.055.357.116.576.185.233.055.466.116.699.185.246.055.466.11.658.164.287.083.555.165.801.247.26.069.487.13.679.185l.184.103.185.164c.124.233.24.5.35.802.11.302.22.63.329.987a5.943 5.943 0 01.226.945c.041.165.075.322.103.473.027.137.048.247.061.329 0 .096.035.123.103.082l1.049-.226c.054 0 .082-.034.082-.103a31.286 31.286 0 01-.144-.72 7.447 7.447 0 00-.329-1.253 4.085 4.085 0 00-.535-1.007c.179.15.37.329.576.534.206.192.404.411.596.658.055.082.13.185.226.308.096.124.185.254.268.39.095.124.185.248.267.37.082.124.144.227.185.31.014.04.055.06.123.06z"/></svg>