<svg width="24" height="24" viewBox="0 0 24 24" xmlns="http://www.w3.org/2000/svg"><path d="M13.978 21.214l-7.955-4.48-.226-.145c.356.206.713.247 1.069.124.356-.124.685-.322.987-.597.315-.287.596-.61.842-.966.26-.356.466-.657.617-.904.082-.137.069-.24-.04-.308-.097-.069-.193-.021-.289.143a4.25 4.25 0 01-.925 1.11c-.37.302-.774.535-1.213.7-.424.15-.877.205-1.356.164a3.347 3.347 0 01-1.419-.473c-.37-.22-.685-.404-.945-.555a9.244 9.244 0 01-.596-.39l-.432-.309a.614.614 0 01-.206-.308.407.407 0 01.021-.288.391.391 0 01.206-.185.694.694 0 01.41 0c.22.055.453.09.7.103.246 0 .507-.069.78-.206.275-.137.563-.37.864-.699.315-.342.651-.829 1.007-1.46l.432-.76.329-.575c.11-.192.178-.322.205-.39a.393.393 0 01.227-.165.361.361 0 01.287.04l.206.124 2.364 1.357.637.37 2.59 1.5.637.37 2.59 1.48.617.37 1.83 1.049.76.452c.096.055.158.13.185.226.028.082.014.171-.04.267l-1.543 2.652-.41.637-.042.062a2.77 2.77 0 01-.596.617 2.634 2.634 0 01-.863.473 2.567 2.567 0 01-1.09.143c-.397-.013-.802-.137-1.213-.37zM18.583 8.82l2.323 1.336c.26.151.48.357.658.617a2.536 2.536 0 01.493 1.747 2.055 2.055 0 01-.267.864l-.453.78-.328.597-.453.76c-.068.165-.178.192-.329.083L7.77 8.408a.184.184 0 01-.102-.123.28.28 0 01.02-.185l.432-.781.35-.576.452-.781c.15-.26.356-.48.616-.658.26-.178.542-.301.843-.37.302-.082.61-.11.925-.082.315.027.603.116.864.267l2.26 1.295c.261.15.494.24.7.267.219.014.39-.089.513-.308a.771.771 0 00.144-.452c0-.548.076-1.062.226-1.542.042-.11.076-.22.103-.329.028-.11.076-.22.144-.329l.226-.39c.151-.26.343-.473.576-.638.233-.178.48-.301.74-.37a2.48 2.48 0 01.843-.061c.287.027.561.116.822.267.26.15.473.343.637.576.178.233.302.486.37.76.082.26.103.535.062.822a2.005 2.005 0 01-.267.823l-.227.39a3.507 3.507 0 01-.431.576 5.29 5.29 0 01-.514.452 7.556 7.556 0 01-.473.329 3.777 3.777 0 00-.288.185.832.832 0 00-.308.308c-.123.22-.13.418-.02.596.123.165.315.322.575.473z" fill="currentColor"/></svg>