<svg width="24" height="24" viewBox="0 0 24 24" fill="currentColor" xmlns="http://www.w3.org/2000/svg"><path d="M17.053 3H6.947A3.954 3.954 0 003 6.947v10.088a3.954 3.954 0 003.947 3.947h10.088a3.954 3.954 0 003.947-3.947V6.947C21 4.773 19.227 3 17.052 3zm-.073 16.21h-1.846c0-.056 0-.092-.018-.147-.018-.055-.018-.091-.037-.146-.018-.037-.036-.092-.073-.128a.484.484 0 00-.091-.11.778.778 0 00-.658-.2c-.055 0-.091.017-.146.036-.037.018-.092.036-.128.073a.484.484 0 00-.11.091c-.128.146-.22.33-.22.512h-3.325c0-.055 0-.091-.018-.146-.019-.055-.019-.092-.037-.147-.018-.036-.037-.09-.073-.127a.484.484 0 00-.091-.11.778.778 0 00-.658-.201c-.055 0-.092.018-.146.036-.037.019-.092.037-.128.074-.037.018-.073.054-.11.09-.037.038-.055.074-.091.11-.019.037-.055.074-.073.128a.344.344 0 00-.037.147c0 .054-.018.091-.018.146H7.02a2.238 2.238 0 01-2.23-2.23v-1.827c.056 0 .092 0 .147-.018.037-.018.091-.018.128-.037.037-.018.091-.036.128-.073a.484.484 0 00.11-.091.696.696 0 00.219-.512.663.663 0 00-.22-.512c-.036-.036-.073-.055-.11-.091-.036-.018-.072-.055-.127-.073a.344.344 0 00-.146-.037c-.055-.018-.092-.018-.146-.018v-3.344a.696.696 0 00.512-.22c.036-.036.054-.072.09-.109.019-.037.055-.073.074-.128a.339.339 0 00.036-.128c.019-.055.019-.091.019-.146 0-.055 0-.091-.019-.146a.264.264 0 00-.036-.128c-.019-.037-.037-.092-.073-.128a.485.485 0 00-.092-.11.484.484 0 00-.11-.091c-.036-.018-.072-.055-.127-.073a.344.344 0 00-.146-.037c-.055 0-.092-.018-.147-.018V7.02a2.238 2.238 0 012.23-2.23h1.845c0 .056 0 .092.019.147.018.055.018.091.036.146a.295.295 0 00.073.128c.019.037.055.073.092.11.146.146.329.22.511.22.055 0 .092 0 .147-.02.054 0 .091-.017.128-.036.036-.018.09-.036.127-.073.037-.036.074-.055.11-.091.037-.037.073-.073.092-.11.018-.036.054-.073.072-.128a.344.344 0 00.037-.146c0-.036.018-.091.018-.146h3.345a.694.694 0 00.22.512c.145.146.328.219.51.219.055 0 .092 0 .147-.018a.264.264 0 00.128-.037c.036-.018.091-.037.127-.073.037-.037.074-.055.11-.091a.694.694 0 00.22-.512h1.845a2.238 2.238 0 012.23 2.23v1.863a.75.75 0 00-.512.201.691.691 0 00-.22.512c0 .201.074.384.22.512.128.127.31.219.512.219v3.362a.75.75 0 00-.512.201.691.691 0 00-.22.512c0 .055 0 .091.019.146.018.055.018.092.036.128.019.037.037.091.074.128a.487.487 0 00.09.11.484.484 0 00.11.091c.037.018.092.055.128.073a.338.338 0 00.128.037c.055 0 .092.018.147.018v1.846c.036 1.224-.969 2.23-2.193 2.23z"/><path d="M9.597 13.672a.733.733 0 00-.731.731c0 .402.329.731.73.731a.733.733 0 00.732-.73.757.757 0 00-.055-.293.728.728 0 00-.676-.439zM9.597 7.934a.733.733 0 00.73-.73.733.733 0 00-.73-.732.733.733 0 00-.731.731c0 .402.329.731.73.731zM9.597 8.866a.733.733 0 00-.731.73c0 .403.329.732.73.732a.733.733 0 00.732-.731.757.757 0 00-.055-.292.728.728 0 00-.676-.439zM9.597 16.066a.733.733 0 00-.731.731c0 .402.329.731.73.731a.733.733 0 00.732-.731.733.733 0 00-.731-.731zM9.597 12.722a.733.733 0 00.73-.731.733.733 0 00-.73-.731.733.733 0 00-.731.73c0 .403.329.732.73.732zM14.403 12.722a.733.733 0 00.73-.731.733.733 0 00-.73-.731.733.733 0 00-.731.73c0 .403.329.732.73.732zM14.403 8.866a.733.733 0 00-.731.73c0 .403.329.732.73.732a.733.733 0 00.732-.731.758.758 0 00-.055-.292.729.729 0 00-.676-.439zM14.403 13.672a.733.733 0 00-.731.731c0 .402.329.731.73.731a.733.733 0 00.732-.73.758.758 0 00-.055-.293.729.729 0 00-.676-.439zM14.403 7.934a.733.733 0 00.73-.73.733.733 0 00-.73-.732.733.733 0 00-.731.731c0 .402.329.731.73.731zM14.403 16.066a.733.733 0 00-.731.731c0 .402.329.731.73.731a.733.733 0 00.732-.731.733.733 0 00-.731-.731zM7.203 8.866a.733.733 0 00-.73.73c0 .403.328.732.73.732a.733.733 0 00.731-.731.733.733 0 00-.73-.731zM16.797 8.866a.733.733 0 00-.731.73c0 .403.329.732.73.732.403 0 .732-.329.732-.731a.733.733 0 00-.731-.731zM11.99 8.866a.733.733 0 00-.73.73c0 .403.329.732.73.732a.733.733 0 00.732-.731.722.722 0 00-.731-.731zM16.797 13.672a.733.733 0 00-.731.731c0 .402.329.731.73.731.403 0 .732-.329.732-.73a.733.733 0 00-.731-.732zM11.99 13.672a.733.733 0 00-.73.731c0 .402.329.731.73.731a.733.733 0 00.732-.73.722.722 0 00-.731-.732zM7.203 13.672a.733.733 0 00-.73.731c0 .402.328.731.73.731a.733.733 0 00.731-.73.733.733 0 00-.73-.732z"/></svg>