<svg width="24" height="24" viewBox="0 0 24 24" xmlns="http://www.w3.org/2000/svg"><path d="M19.227 9.859c-1.962.188-3.44 1.693-3.924.59-.752-1.612 3.091-2.095 2.554-3.95-.35-1.102-2.688-2.096-4.381-2.365C8.047 3.301 2 6.58 2 11.606c0 5.16 4.273 8.331 9.03 8.331 5.51 0 11.154-3.682 10.965-7.337-.134-2.07-1.908-2.822-2.768-2.741z" fill="currentColor"/><path d="M19.734 7.872a3.109 3.109 0 00.043-1.93l-.006-.024-.008-.023c-.247-.778-.767-1.342-1.2-1.712a7.419 7.419 0 00-1.498-.968 11.8 11.8 0 00-3.276-1.056l-.01-.002c-3.183-.488-6.53.22-9.123 1.811C2.057 5.562 0 8.205 0 11.605c0 6.528 5.452 10.332 11.03 10.332 3.168 0 6.338-1.047 8.725-2.631 2.284-1.515 4.387-3.914 4.238-6.809v-.013l-.002-.014c-.107-1.649-.897-2.87-1.888-3.632-.705-.542-1.555-.884-2.369-.966zm-2.279 2.464c-.113.046-.223.09-.33.135l-.024.01c-.877.36-1.511.621-1.798-.031-.308-.66.155-1.131.771-1.585.129-.094.264-.188.4-.282l.035-.024c.796-.553 1.615-1.136 1.348-2.06-.35-1.102-2.688-2.096-4.381-2.365C8.047 3.301 2 6.58 2 11.605c0 5.16 4.273 8.332 9.03 8.332 5.51 0 11.154-3.682 10.965-7.337-.134-2.07-1.908-2.822-2.768-2.741-.65.062-1.247.269-1.772.477z" fill="currentColor"/><path d="M19.227 9.854c-1.962.188-3.44 1.693-3.924.59-.752-1.612 3.091-2.095 2.554-3.95-.35-1.102-2.688-2.096-4.381-2.365C8.047 3.296 2 6.575 2 11.601c0 5.16 4.273 8.331 9.03 8.331 5.51 0 11.154-3.682 10.965-7.337-.134-2.07-1.908-2.822-2.768-2.741zm-8.009 6.584c-.08.591-.725.538-.913.699-.27.242-.43.726-1.049.726-.43 0-.886-.511-.886-1.29 0-.995.645-1.56 1.424-1.56.78 0 1.532.646 1.424 1.425zm-.403-6.423c-1.37-.108-2.311-1.021-2.07-2.016.216-.994 1.533-1.72 2.903-1.612 1.371.107 2.312 1.021 2.07 2.015-.215.995-1.532 1.72-2.903 1.613zm4.032 6.719c-.081.591-.726.537-.914.699-.269.241-.43.725-1.048.725-.43 0-.887-.51-.887-1.29 0-.994.645-1.559 1.424-1.559.78-.026 1.532.645 1.425 1.425zm3.52-1.022c-.08.592-.725.538-.914.7-.268.241-.43.725-1.048.725-.43 0-.887-.51-.887-1.29 0-.995.645-1.559 1.425-1.559.78-.027 1.532.645 1.424 1.425z" fill="#897A67"/></svg>