<svg width="24" height="24" viewBox="0 0 24 24" fill="none" xmlns="http://www.w3.org/2000/svg"><path fill-rule="evenodd" clip-rule="evenodd" d="M20.519 12.059a1.99 1.99 0 00-.933.527L17.5 14.672l-2.086-2.086a2 2 0 00-3.031.237c-.088-.036-.172-.07-.251-.1a3.342 3.342 0 01-.329-.164c-.069-.027-.123-.096-.165-.206l-.082-.267a15.78 15.78 0 00-.144-.452 4.763 4.763 0 00-.144-.473 2.673 2.673 0 00-.123-.39c-.027-.11-.103-.179-.226-.206a.36.36 0 00-.329.082l-1.603 1.418c-.082.096-.171.144-.267.144l-1.912.226c-.15.028-.254.09-.308.185-.042.083-.035.186.02.309l.185.37c.082.15.165.308.247.473.082.15.157.294.226.431.068.124.116.206.144.247.013.055 0 .158-.041.308l-.144.555c-.055.247-.117.514-.185.802-.069.274-.124.528-.165.76-.04.234-.055.378-.04.432a.184.184 0 00.102.124c.055.013.11.006.164-.02l.412-.165.657-.268c.233-.096.453-.185.658-.267.22-.082.37-.13.452-.144.192-.04.377.007.555.144.041.028.137.096.288.206.165.11.343.233.535.37.205.137.397.267.575.39.178.11.302.185.37.226a.223.223 0 00.185.042.47.47 0 00.185-.103c.028-.028.048-.137.062-.33a4.53 4.53 0 00.041-.636c.014-.247.02-.48.02-.7v-.513a.547.547 0 01.206-.411c.026-.026.072-.066.137-.12.068.1.146.194.235.282l2.086 2.086-2.086 2.086a2 2 0 00-.512 1.956 20.907 20.907 0 01-3.17-.247c-1.04-.164-1.973-.459-2.795-.884a5.248 5.248 0 01-1.994-1.706c-.493-.726-.74-1.651-.74-2.775 0-.877.199-1.74.596-2.59a8.59 8.59 0 011.603-2.323 9.707 9.707 0 012.323-1.809 8.984 8.984 0 012.775-1.048c-.013-.192.041-.466.165-.822l.144-.288a.78.78 0 01.164-.247c.15-.15.288-.247.411-.288a.699.699 0 01.35-.061h.02c-.082-.877-.055-1.57.082-2.076.151-.508.405-.953.761-1.337a2.17 2.17 0 01.802-.534 3.286 3.286 0 012.055-.165c.343.083.644.213.905.391.178.15.343.315.493.493.11.151.206.343.288.576.082.22.09.473.02.76.425 0 .747.11.967.33.233.219.39.41.473.575.068.123.143.288.226.493.082.206.123.425.123.658 0 .22-.062.446-.185.679-.11.232-.329.445-.658.637l-.246.144c-.028 0-.042.006-.042.02-.137.055-.274.09-.41.103-.138.014-.261.027-.37.041.013.014.02.123.02.329v.02c0 .014-.007.021-.02.021.273.15.568.329.883.535.315.205.59.418.822.637.124.11.26.26.412.452.164.178.321.363.472.555.165.192.302.377.411.555.124.165.206.288.247.37.042.118.062.232.062.343zm-.781.027l-.72.473c-.068 0-.11-.02-.123-.062a3.018 3.018 0 00-.185-.308 6.254 6.254 0 00-.267-.37 3.922 3.922 0 00-.268-.39 5.452 5.452 0 01-.226-.31 5.599 5.599 0 00-.596-.657 9.506 9.506 0 00-.576-.534c.206.274.384.61.535 1.007.165.48.274.897.329 1.254.068.356.116.596.144.72 0 .068-.028.102-.082.102l-1.049.226c-.068.041-.103.014-.103-.082a10.874 10.874 0 00-.061-.329 7.43 7.43 0 00-.103-.473 5.674 5.674 0 00-.226-.945c-.11-.357-.22-.685-.329-.987a6.373 6.373 0 00-.35-.802l-.184-.164-.185-.103a34.081 34.081 0 00-.679-.185 19.382 19.382 0 00-.801-.247c-.192-.054-.412-.11-.658-.164-.233-.069-.466-.13-.7-.185-.219-.069-.41-.13-.575-.185-.164-.069-.26-.123-.288-.164-.027-.042-.027-.13 0-.268.041-.137.076-.253.103-.35.069-.164.123-.26.165-.287.082-.096.157-.144.226-.144.068 0 .322.048.76.144.453.082.96.212 1.521.39l.658.206c.22.069.425.137.617.206v-.02c.041-.028.137-.028.288 0h.04c-.013 0-.006.006.021.02.041 0 .096.007.165.02.246.028.404.076.473.144.04.041.054.124.04.247l-.06.35v.04c-.015.014-.021.042-.021.083 0 .013-.007.02-.021.02.082.028.206.09.37.185.164.082.343.185.534.309.206.123.405.26.597.41.205.138.383.275.534.412.11.096.24.233.39.41.151.165.295.337.432.515.137.164.254.315.35.452.11.137.171.226.185.267.027.055.013.09-.041.103z" fill="currentColor"/><path fill-rule="evenodd" clip-rule="evenodd" d="M13.293 20.293a1 1 0 001.414 1.414l2.793-2.793 2.793 2.793a1 1 0 001.414-1.414L18.914 17.5l2.793-2.793a1 1 0 00-1.414-1.414L17.5 16.086l-2.793-2.793a1 1 0 00-1.414 1.414l2.793 2.793-2.793 2.793z" fill="#FF3535"/></svg>