<svg width="24" height="24" viewBox="0 0 24 24" fill="currentColor" xmlns="http://www.w3.org/2000/svg"><path d="M19.227 9.854c-1.962.188-3.44 1.693-3.924.59-.752-1.612 3.091-2.095 2.554-3.95-.35-1.102-2.688-2.096-4.381-2.365C8.047 3.296 2 6.575 2 11.601c0 5.16 4.273 8.331 9.03 8.331 5.51 0 11.154-3.682 10.965-7.337-.134-2.07-1.908-2.822-2.768-2.741zm-8.009 6.584c-.08.591-.725.538-.913.699-.27.242-.43.726-1.049.726-.43 0-.886-.511-.886-1.29 0-.995.645-1.56 1.424-1.56.78 0 1.532.646 1.424 1.425zm-.403-6.423c-1.37-.108-2.311-1.021-2.07-2.016.216-.994 1.533-1.72 2.903-1.612 1.371.107 2.312 1.021 2.07 2.015-.215.995-1.532 1.72-2.903 1.613zm4.032 6.719c-.081.591-.726.537-.914.699-.269.241-.43.725-1.048.725-.43 0-.887-.51-.887-1.29 0-.994.645-1.559 1.424-1.559.78-.026 1.532.645 1.425 1.425zm3.52-1.022c-.08.592-.725.538-.914.7-.268.241-.43.725-1.048.725-.43 0-.887-.51-.887-1.29 0-.995.645-1.559 1.425-1.559.78-.027 1.532.645 1.424 1.425z"/></svg>