<svg width="24" height="24" viewBox="0 0 24 24" xmlns="http://www.w3.org/2000/svg"><path d="M13.188 7.497a1.353 1.353 0 00-.555.555c-.137.247-.192.52-.165.822h-4.46a5.49 5.49 0 00.288-.76c.095-.288.178-.603.246-.946.069-.37.158-.795.267-1.274.124-.494.275-.912.453-1.254.192-.357.41-.651.657-.884.26-.247.57-.445.925-.596.316-.137.638-.206.967-.206.342-.014.671.02.986.103.274.068.528.206.76.411.248.206.426.425.535.658.028.137.055.13.083-.02.191-.384.349-.775.472-1.172.124-.411.2-.754.226-1.028v-.02c.014-.014.021-.014.021 0 .082.04.171.095.267.164.096.055.192.123.288.205.11.069.206.137.288.206.096.068.171.13.226.185.014.027.014.048 0 .062-.274.274-.534.555-.781.842a5.042 5.042 0 00-.596.843c-.041.055-.028.082.04.082.302.041.576.144.823.309.26.164.473.37.637.616.178.26.295.542.35.843.055.302.068.61.04.925a3.08 3.08 0 01-.225.884c-.11.247-.233.46-.37.637l-.185.185h-.535a.877.877 0 00.02-.164.339.339 0 00.021-.103 1.096 1.096 0 00-.123-.575 1.088 1.088 0 00-.39-.473 1.276 1.276 0 00-.74-.226 1.441 1.441 0 00-.761.164zm9.086-.185a.881.881 0 01-.268.74.943.943 0 01-.719.308h-.802a.992.992 0 00-.575.185 1 1 0 00-.35.473l-3 8.552c-.11.301-.268.561-.474.78a2.122 2.122 0 01-.72.473.132.132 0 00-.102.103.136.136 0 00.02.124c.22.301.33.644.33 1.027 0 .288-.055.555-.165.802-.11.26-.26.48-.452.658-.178.192-.39.336-.637.431a1.95 1.95 0 01-.802.165h-.206a.55.55 0 01-.205-.041 1.927 1.927 0 01-1.07-.555 2.114 2.114 0 01-.554-1.049c-.096-.41-.028-.842.205-1.294a.175.175 0 000-.165c-.027-.055-.075-.082-.143-.082h-1.44c-.068 0-.116.027-.143.082a.232.232 0 00.02.165c.151.37.226.664.226.883 0 .288-.054.555-.164.802-.11.26-.26.48-.452.658-.178.192-.39.336-.638.431a1.95 1.95 0 01-.801.165h-.206a.55.55 0 01-.205-.041 1.917 1.917 0 01-1.049-.555 2.265 2.265 0 01-.575-1.049 1.587 1.587 0 010-.801c.082-.26.198-.507.35-.74H6.24c-.274 0-.514-.096-.72-.288a.881.881 0 01-.267-.74.956.956 0 01.33-.658c.205-.178.445-.267.719-.267h7.667c.22 0 .411-.062.576-.185a.951.951 0 00.37-.493c.013-.083-.021-.124-.103-.124H8.378c-.439 0-.85-.075-1.234-.226a3.928 3.928 0 01-1.027-.637 3.627 3.627 0 01-.72-.966 3.233 3.233 0 01-.308-1.213l-.206-2.816a.527.527 0 01.124-.452.585.585 0 01.452-.206h11.429c.233 0 .39-.11.473-.329l.555-1.583c.15-.41.397-.74.74-.986.356-.26.754-.39 1.192-.39h1.377a.99.99 0 01.7.266.925.925 0 01.349.658zM7.987 14.527v-3.412a.394.394 0 00-.123-.288.331.331 0 00-.267-.123.394.394 0 00-.288.123.394.394 0 00-.123.288v3.412c0 .11.04.206.123.288a.435.435 0 00.288.103c.26 0 .39-.13.39-.39zm2.303 0v-3.412a.394.394 0 00-.124-.288.331.331 0 00-.267-.123.394.394 0 00-.288.123.394.394 0 00-.123.288v3.412c0 .11.04.206.123.288a.436.436 0 00.288.103c.26 0 .39-.13.39-.39zm2.302 0v-3.412a.394.394 0 00-.124-.288.394.394 0 00-.576 0 .436.436 0 00-.102.288v3.412c0 .26.13.39.39.39.11 0 .206-.033.288-.102a.394.394 0 00.124-.288zm2.302 0v-3.412a.394.394 0 00-.123-.288.394.394 0 00-.576 0 .436.436 0 00-.103.288v3.412c0 .26.13.39.39.39.11 0 .207-.033.289-.102a.394.394 0 00.123-.288zm-6.701 6.147a.527.527 0 00.41-.186.527.527 0 00.186-.41.448.448 0 00-.185-.37.602.602 0 00-.411-.144.683.683 0 00-.432.143.47.47 0 00-.164.37c0 .165.054.302.164.411a.592.592 0 00.432.186zm5.365 0a.527.527 0 00.411-.186.527.527 0 00.185-.41.448.448 0 00-.185-.37.602.602 0 00-.411-.144.715.715 0 00-.452.143.47.47 0 00-.165.37c0 .165.055.302.165.411a.615.615 0 00.452.186z" fill="currentColor"/></svg>