<svg width="24" height="24" viewBox="0 0 24 24" xmlns="http://www.w3.org/2000/svg"><path d="M12.633 8.052c.137-.247.322-.432.555-.555.233-.123.486-.178.76-.164.274 0 .521.075.74.226.179.123.309.28.391.473.096.191.137.383.123.575a.339.339 0 01-.02.103.884.884 0 01-.02.164h.534l.185-.185c.137-.178.26-.39.37-.637a3.08 3.08 0 00.226-.884 3.47 3.47 0 00-.041-.925 2.164 2.164 0 00-.35-.843 2.108 2.108 0 00-.637-.616 1.932 1.932 0 00-.822-.309c-.069 0-.082-.027-.041-.082.15-.274.35-.555.596-.843.246-.287.507-.568.78-.842.015-.014.015-.035 0-.062a1.828 1.828 0 00-.225-.185 2.606 2.606 0 00-.288-.206 1.87 1.87 0 00-.288-.205 2.032 2.032 0 00-.267-.165c0-.013-.007-.013-.02 0v.02a5.691 5.691 0 01-.227 1.029 7.774 7.774 0 01-.472 1.171c-.028.151-.055.158-.083.02a1.953 1.953 0 00-.534-.657 1.804 1.804 0 00-.76-.411 3.357 3.357 0 00-.987-.103c-.33 0-.651.069-.966.206-.357.15-.665.35-.926.596a3.456 3.456 0 00-.657.884c-.178.342-.33.76-.453 1.254-.11.48-.198.904-.267 1.274-.068.343-.15.658-.246.946a5.49 5.49 0 01-.288.76h4.46a1.394 1.394 0 01.165-.822zm9.373 0a.881.881 0 00.268-.74.925.925 0 00-.35-.658.99.99 0 00-.699-.267h-1.377c-.438 0-.836.13-1.192.39-.343.247-.59.576-.74.987l-.555 1.583a.465.465 0 01-.473.329H5.459a.585.585 0 00-.452.206.527.527 0 00-.124.452l.206 2.816c.027.438.13.843.308 1.213.192.37.432.692.72.966.301.26.644.473 1.027.637.384.15.795.226 1.234.226h5.986l-.778-.778a2 2 0 01.506-3.197v-1.102c0-.11.035-.206.103-.288a.394.394 0 01.576 0 .394.394 0 01.123.288v.888a1.995 1.995 0 011.52.583l1.402 1.402 1.744-4.97a1 1 0 01.35-.473.992.992 0 01.575-.185h.802a.943.943 0 00.72-.308zm-8.655 14.081a.55.55 0 01-.204-.041 1.927 1.927 0 01-1.07-.555 2.114 2.114 0 01-.554-1.049c-.096-.41-.028-.842.205-1.294a.175.175 0 000-.165c-.027-.055-.075-.082-.143-.082h-1.44c-.068 0-.116.027-.143.082a.232.232 0 00.02.165c.151.37.226.664.226.883 0 .288-.054.555-.164.802-.11.26-.26.48-.452.658-.178.192-.39.336-.638.431a1.95 1.95 0 01-.801.165h-.206a.55.55 0 01-.205-.041 1.917 1.917 0 01-1.049-.555 2.265 2.265 0 01-.575-1.049 1.587 1.587 0 010-.801c.082-.26.198-.507.35-.74H6.24c-.274 0-.514-.096-.72-.288a.881.881 0 01-.267-.74.956.956 0 01.33-.658c.205-.178.445-.267.719-.267h7.667c.22 0 .411-.062.576-.185a.97.97 0 00.223-.213l.904.904-2.065 2.065a.715.715 0 00-.501.142.47.47 0 00-.165.37.56.56 0 00.134.379 2.002 2.002 0 00.276 1.677zM7.987 11.115v3.412c0 .26-.13.39-.39.39a.435.435 0 01-.288-.102.394.394 0 01-.123-.288v-3.412c0-.11.04-.206.123-.288a.394.394 0 01.288-.123c.11 0 .198.04.267.123a.394.394 0 01.123.288zm2.303 0v3.412c0 .26-.13.39-.391.39a.435.435 0 01-.288-.102.394.394 0 01-.123-.288v-3.412c0-.11.04-.206.123-.288a.394.394 0 01.288-.123c.11 0 .199.04.267.123a.394.394 0 01.123.288zm2.302 0v3.412c0 .11-.041.206-.124.288a.435.435 0 01-.287.103c-.26 0-.39-.13-.39-.39v-3.413c0-.11.033-.206.102-.288a.394.394 0 01.575 0 .394.394 0 01.124.288zm-3.988 9.373a.527.527 0 01-.411.186.592.592 0 01-.432-.186.558.558 0 01-.164-.41.47.47 0 01.164-.37.683.683 0 01.432-.144c.164 0 .301.047.41.143.124.096.186.22.186.37a.527.527 0 01-.185.411z" fill="currentColor"/><path d="M14.293 20.293a1 1 0 001.414 1.414l2.793-2.793 2.793 2.793a1 1 0 001.414-1.414L19.914 17.5l2.793-2.793a1 1 0 00-1.414-1.414L18.5 16.086l-2.793-2.793a1 1 0 00-1.414 1.414l2.793 2.793-2.793 2.793z" fill="#E60012"/></svg>