<svg width="40" height="40" viewBox="0 0 40 40" fill="currentColor" xmlns="http://www.w3.org/2000/svg"><path d="M27.862 24.07a11.969 11.969 0 001.847-6.403c0-3.22-1.248-6.239-3.527-8.518a11.936 11.936 0 00-8.515-3.524c-3.22 0-6.242 1.245-8.518 3.524-4.7 4.697-4.7 12.34 0 17.036a11.993 11.993 0 008.518 3.528c2.301 0 4.5-.657 6.402-1.855l5.6 6.345 4.54-4.534-6.347-5.6zm-3.902-.113a8.826 8.826 0 01-6.293 2.613 8.828 8.828 0 01-6.297-2.613c-3.473-3.466-3.473-9.117 0-12.587a8.832 8.832 0 016.297-2.602 8.83 8.83 0 016.293 2.602 8.84 8.84 0 012.61 6.297c0 2.381-.926 4.617-2.61 6.29z"/><path d="M12.637 19.137c-5.255.831-.86-11.08 2.98-7.437.99.937-1.245 2.127-1.586 3.63-.458 2.01.515 3.51-1.394 3.807zM15.083 23.274c-1.974 1.942-4.936-1.774-3.433-2.493.918-.439 2.09-.392 2.729.261.639.643 1.39 1.554.704 2.232z"/></svg>