<svg width="24" height="24" viewBox="0 0 24 24" fill="none" xmlns="http://www.w3.org/2000/svg"><path d="M12.169 20.195c.097-.221.236-.428.417-.61l2.086-2.085-2.086-2.086a2 2 0 01.085-2.909l-2.105-1.22-.637-.37L7.565 9.56l-.206-.123a.361.361 0 00-.287-.041.393.393 0 00-.227.164 3.972 3.972 0 01-.205.39l-.329.576-.432.76c-.356.631-.692 1.118-1.007 1.46-.301.33-.59.562-.863.7a1.75 1.75 0 01-.781.205 3.732 3.732 0 01-.7-.103.694.694 0 00-.41 0 .391.391 0 00-.206.185.407.407 0 00-.02.288c.027.11.095.212.205.308l.432.309c.15.11.35.24.596.39.26.15.575.336.945.555.466.274.94.432 1.419.473.48.041.932-.014 1.356-.165a4.297 4.297 0 001.213-.699 4.25 4.25 0 00.925-1.11c.096-.164.192-.212.288-.143.11.068.123.17.041.308-.15.247-.356.548-.617.904a5.686 5.686 0 01-.842.966c-.302.275-.63.473-.987.597-.356.123-.713.082-1.069-.124l.226.144 6.146 3.462zm9.898-7.887a2.536 2.536 0 00-.503-1.536 2.014 2.014 0 00-.658-.617L18.583 8.82c-.26-.15-.452-.308-.576-.473-.11-.178-.102-.377.02-.596a.832.832 0 01.31-.308c.054-.041.15-.103.287-.185.15-.096.308-.206.473-.329a5.29 5.29 0 00.514-.452c.164-.178.308-.37.431-.576l.227-.39c.15-.26.24-.535.267-.823.04-.287.02-.562-.062-.822a2.066 2.066 0 00-.37-.76 1.985 1.985 0 00-.637-.576c-.26-.15-.535-.24-.822-.267a2.48 2.48 0 00-.843.061c-.26.069-.507.192-.74.37a1.985 1.985 0 00-.576.638l-.226.39c-.068.11-.116.22-.144.33-.027.109-.061.218-.102.328-.151.48-.227.994-.227 1.542a.771.771 0 01-.144.452c-.123.22-.294.322-.514.308-.205-.027-.438-.116-.698-.267L12.17 5.12c-.26-.15-.549-.24-.864-.267-.315-.028-.623 0-.925.082a2.437 2.437 0 00-.843.37c-.26.178-.466.397-.616.658l-.453.781-.35.576-.43.78a.28.28 0 00-.021.186.184.184 0 00.102.123L13.99 12a1.994 1.994 0 011.424.586l.561.56 1.933 1.117 1.678-1.677a2 2 0 012.481-.278z" fill="currentColor"/><path d="M13.293 20.293a1 1 0 001.414 1.414l2.793-2.793 2.793 2.793a1 1 0 001.414-1.414L18.914 17.5l2.793-2.793a1 1 0 00-1.414-1.414L17.5 16.086l-2.793-2.793a1 1 0 00-1.414 1.414l2.793 2.793-2.793 2.793z" fill="#FF3535"/></svg>