<?xml version="1.0" encoding="utf-8"?>
<!-- Svg Vector Icons : http://www.onlinewebfonts.com/icon -->
<!DOCTYPE svg PUBLIC "-//W3C//DTD SVG 1.1//EN" "http://www.w3.org/Graphics/SVG/1.1/DTD/svg11.dtd">
<svg version="1.1" xmlns="http://www.w3.org/2000/svg" xmlns:xlink="http://www.w3.org/1999/xlink" x="0px" y="0px" viewBox="0 0 256 256" enable-background="new 0 0 256 256" xml:space="preserve">
<metadata> Svg Vector Icons : http://www.onlinewebfonts.com/icon </metadata>
<g><g><path fill="#fff" d="M244.1,105.9c-0.4-2.9-2.6-5.5-5.6-6.3c-10.7-3.3-19.9-10.7-25.8-20.7c-5.9-10.4-7.8-21.4-5.2-32.9c0.7-2.9-0.4-6.3-2.6-8.1c-11.4-9.9-24-17-37.7-21.8c-2.9-0.7-5.9,0-8.1,1.9c-8.5,7.8-19.5,12.2-31,12.2s-22.5-4.4-31-12.2c-2.2-2.2-5.2-2.6-8.1-1.9C75.3,20.6,62.8,28,51.3,38c-2.2,2.2-3.3,5.2-2.6,8.1c2.6,11.1,0.7,22.5-5.2,32.9c-5.9,10-14.8,17.4-26.2,21c-2.9,0.7-5.2,3.3-5.5,6.3c-1.1,8.1-1.9,15.1-1.9,21.8c0,7,0.4,13.7,1.9,21.8c0.4,3,2.6,5.2,5.5,6.3c11.1,3.7,20.3,11.1,26.2,21.1c5.9,10,7.8,21.8,5.2,32.5c-0.7,2.9,0.4,6.3,2.6,8.1c11.4,10,24,17,37.7,21.8c0.7,0.4,1.9,0.4,2.6,0.4c1.9,0,4-0.7,4.8-1.9c8.5-7.7,19.6-12.2,31-12.2s22.5,4.4,31,12.2c2.2,1.9,5.5,2.6,8.5,1.5c14.4-5.2,26.9-12.6,37.7-21.8c2.2-2.2,3.3-5.2,2.6-8.1c-2.6-11.1-0.7-22.5,5.2-32.9c5.9-10,14.8-17.4,26.2-21c3-0.7,5.2-3.3,5.6-6.3c1.1-8.1,1.9-15.2,1.9-21.8C246,120.7,245.6,114,244.1,105.9z M127.8,174.9c-25.4,0-46-20.6-46-46c0-25.4,20.6-46,46-46s46,20.6,46,46C173.8,154.2,153.2,174.9,127.8,174.9z"/></g></g>
</svg>