<svg width="24" height="24" viewBox="0 0 24 24" fill="currentColor" xmlns="http://www.w3.org/2000/svg"><path d="M19.548 2.723l-2.113-1.387a1.345 1.345 0 00-1.967.617l-1.996 4.891h-8.56a.878.878 0 00-.865 1.024l2.402 14.27a.884.884 0 00.874.739h8.625a.884.884 0 00.874-.74l2.405-14.27a.877.877 0 00-.864-1.023h-3.02l1.537-3.792 1.729 1.122a.867.867 0 10.947-1.45h-.008zm-2.69 8.726c-.768-.53-1.442-1.013-2.516-1.013-2.388 0-2.85 2.384-6.483 2.384a6.988 6.988 0 01-1.249-.107l-.697-4.136h11.43l-.484 2.872z"/></svg>