<svg width="24" height="24" viewBox="0 0 24 24" fill="currentColor" xmlns="http://www.w3.org/2000/svg"><path d="M5.612 16.048a2.071 2.071 0 00-.887.192c-.044.021-.088.042-.133.067H4.58l-.142.085c-.68.432-1.447 1.882-.61 3.928.466 1.141 1.922 2.828 3.555 2.828h.151a1.875 1.875 0 001.472-.826l.03-.048.066-.104.03-.06c.02-.032.037-.066.053-.101.011-.021.019-.042.028-.064l.047-.103.023-.064c.013-.036.027-.073.038-.111.012-.039.014-.04.021-.062.008-.02.023-.078.033-.119.01-.04.011-.036.015-.053l.031-.137v-.04a4.035 4.035 0 00.044-1.26c-.142-1.14-1.955-3.948-3.852-3.948zM19.57 16.407a2.906 2.906 0 00-.224-.127 2.112 2.112 0 00-.96-.232c-1.897 0-3.71 2.808-3.86 3.957-.044.364-.04.731.015 1.093 0 .058.02.116.031.175v.033c0 .048.021.094.033.142a.443.443 0 00.013.048c0 .042.023.084.035.125.011.04.011.038.019.057.008.02.025.075.038.114.014.038.016.04.025.061l.045.106.028.061.052.102.033.058c.02.036.042.07.063.104l.031.05c.035.047.07.096.108.142a1.874 1.874 0 001.364.682h.151c1.637 0 3.087-1.687 3.554-2.826.853-2.042.087-3.49-.593-3.925z"/><path d="M13.58 19.88c.122-.935 1.056-2.71 2.408-3.819a3.5 3.5 0 00-1.11-1.654.48.48 0 01.615-.737 4.437 4.437 0 011.32 1.838 3.351 3.351 0 011.578-.42c.227 0 .454.026.675.076-.361-1.049-1.153-2.532-2.87-3.878a7.299 7.299 0 01-2.025.541h-.029a.384.384 0 11-.029-.768 7.036 7.036 0 002-.576c.337-.207.633-.473.876-.784.734-.92.367-2.642-.156-4.138 1.153-.248 2.2-2.44.692-4.107-1.087-1.2-3.423-.425-3.558.532a7.018 7.018 0 00-1.92-.225h-.04a7.018 7.018 0 00-1.92.225c-.135-.96-2.47-1.729-3.558-.532-1.508 1.667-.469 3.86.692 4.107-.523 1.496-.89 3.218-.154 4.138.242.311.538.577.874.784.634.29 1.308.484 2 .576a.384.384 0 11-.03.768h-.028a7.298 7.298 0 01-2.023-.541c-1.713 1.344-2.497 2.816-2.868 3.865.202-.042.407-.063.613-.064a3.375 3.375 0 011.59.427A4.489 4.489 0 018.52 13.67a.48.48 0 11.615.737 3.515 3.515 0 00-1.114 1.664c1.344 1.108 2.274 2.881 2.395 3.81.058.431.058.868 0 1.3.602.038 1.153.04 1.577.04h.083c.413 0 .94 0 1.518-.036a5.04 5.04 0 01-.014-1.305zM10.61 9.83a.481.481 0 11-.53-.803l1.537-1.013v-.27c-.479-.156-.815-.52-.815-.944 0-.565.596-1.022 1.328-1.022.732 0 1.327.457 1.327 1.022 0 .444-.367.82-.88.96v.252l1.537 1.013a.481.481 0 01-.53.803l-1.489-.976-1.485.977z"/></svg>