<svg width="24" height="24" viewBox="0 0 24 24" fill="currentColor" xmlns="http://www.w3.org/2000/svg"><path d="M19.964 5.79c-.949-.892-2.104-.318-2.482-.086-.41-.544-.893-.93-1.47-1.095a31.71 31.71 0 00-1.92-.491c0-.476-.087-1.065-.424-1.53-.293-.401-.728-.645-1.26-.701-.533-.057-1.009.093-1.373.427-.375.349-.566.844-.667 1.279-1.47-.049-2.434.157-3.09.371-2.678.878-3.709 4.388-3.814 6.675-.105 2.288-1.039 2.194-1.196 4.399-.109 1.556.304 3.469.555 4.459.101.397.435.693.844.75l12.108 1.575c.604 0 1.185-.252 1.598-.69l1.931-2.558a1.7 1.7 0 00.345-1.012V17.4c1.084-.446 1.391-.716 1.853-1.882.51-1.283 1.458-6.9-1.538-9.728zM11.85 3.188c.075-.068.191-.143.435-.116.251.026.356.127.42.213.113.15.165.368.184.59a20.985 20.985 0 00-1.313-.192c.06-.195.147-.379.274-.495zM7.99 8.464l.304-.274a1.189 1.189 0 011.673.09l.273.304a1.189 1.189 0 01-.09 1.673l-.303.273a1.189 1.189 0 01-1.673-.09l-.274-.303a1.186 1.186 0 01.09-1.673zm6.023 6.094a.469.469 0 01-.465.409c-.019 0-.038 0-.06-.004l-8.869-1.11a.467.467 0 01.116-.926l8.87 1.11a.47.47 0 01.408.52zm6.367-.795c-.15 1.072-.468 1.639-.746 1.939-.064-2.292-.319-5.723-1.215-8.18 2.006-.172 2.209 4.44 1.961 6.24z"/></svg>