<svg width="24" height="24" viewBox="0 0 24 24" fill="currentColor" xmlns="http://www.w3.org/2000/svg"><path d="M11.998 2.78a9.22 9.22 0 100 18.441 9.22 9.22 0 000-18.442zm0 16.86a7.64 7.64 0 110-15.28c.377.003.754.034 1.126.093-.17.05-.343.091-.519.12l-.897.137-1.056.16-1.345.8a3.614 3.614 0 00-1 .335l-.52.284c-.293.174-.537.42-.707.717l-.292.576a.795.795 0 00.131.85l.254.262c.203.21.476.515.609.678.163.247.271.526.317.819l.124.816c.033.256.108.505.223.736.081.117.373.138.652.04l1.47-.503c.278-.096.852.23 1.015.069.296-.298.192-.93.454-1.068l.787-1.066c.26-.137.869.257 1.153.169l.768-.778 2.075-.757a.593.593 0 00.398-.674l-.192-.844a.916.916 0 00-.033-.094A7.622 7.622 0 0119.64 12c0 .094-.011.192-.013.28-.432-.02-1.345.43-1.64.496-.347.075-.473.577-.708.665-.234.088-.872.08-1.008.428l-.192.511c-.135.41-.135.85 0 1.259l.192.47c.178.394.477.722.853.936l.415.207a7.61 7.61 0 01-5.54 2.388z"/><path d="M11.973 15.252a4.949 4.949 0 01-.192-1.12 5.018 5.018 0 00-.192-1.12l-.164-.541a.826.826 0 00-.797-.546l-.163.01c-.336.023-.884.088-1.218.15l-1.185.21c-.4.084-.788.22-1.153.402l-.265.14a1.313 1.313 0 00-.598.905l-.063.634a.701.701 0 00.536.742l.974.215a1.063 1.063 0 01.747.601c.08.261.235.734.34 1.055l.177.538c.121.338.35.627.651.822.315.139.669.165 1.001.075.351-.136.65-.38.851-.7l.657-1.127a1.61 1.61 0 00.129-1.118l-.073-.227z"/><path d="M13.209 15.235c-.152-.225-.37-.304-.484-.181-.116.123-.173.52-.135.886.03.343.146.673.338.96a.263.263 0 00.455-.05c.116-.239.167-.504.148-.768a2.215 2.215 0 00-.322-.847z"/></svg>