<svg width="24" height="24" viewBox="0 0 24 24" fill="currentColor" xmlns="http://www.w3.org/2000/svg"><path d="M13.38 17.398a5.87 5.87 0 001.986-1.303c1.98-1.978 1.871-4.654.318-6.818l1.615-1.616.526.526.478-.419.577.578.622-.622-.535-.538.625-.547.497.498.624-.622-.457-.457.625-.547.417.417.624-.624-.377-.375.656-.574a12.928 12.928 0 00-3.355-3.353l-.574.656-.377-.375-.623.624.417.417-.547.625-.456-.46-.623.623.497.5-.547.625-.538-.536-.623.624.58.577-.42.479.525.524-1.615 1.614c-2.163-1.553-4.84-1.664-6.82.316a5.79 5.79 0 00-1.3 1.986c-1.322.233-2.558.816-3.451 1.712-2.282 2.28-1.504 5.675 1.07 8.246 2.572 2.573 5.968 3.352 8.248 1.07.895-.896 1.48-2.128 1.712-3.451zm-1.32-6.258a2.28 2.28 0 010 3.226 2.28 2.28 0 01-3.224 0 2.28 2.28 0 010-3.226 2.276 2.276 0 013.225 0zm-3.1 6.812l-3.711-3.71 1.033-1.034 3.711 3.711-1.033 1.033z"/></svg>