<svg width="24" height="24" viewBox="0 0 24 24" fill="currentColor" xmlns="http://www.w3.org/2000/svg"><path d="M20.7 3.163H3.293A1.854 1.854 0 001.43 5.007v9.76a1.854 1.854 0 001.863 1.843h7.55v1.921h-3.65c-.528.193-.96.62-.96 1.153 0 .528.428.96.96 1.153h9.61c.527-.192.961-.62.961-1.153 0-.528-.428-.96-.96-1.153h-3.65v-1.92h7.551a1.854 1.854 0 001.862-1.845V5.007A1.854 1.854 0 0020.7 3.163zm-.252 11.07a.269.269 0 01-.273.264H3.815a.268.268 0 01-.272-.265v-8.69a.27.27 0 01.273-.266h16.36a.27.27 0 01.272.265v8.691z"/></svg>