<svg width="24" height="24" viewBox="0 0 24 24" fill="currentColor" xmlns="http://www.w3.org/2000/svg"><path d="M12.908 9.48V6.37c.83.452 2.05.695 3.156.695 1.904 0 2.74-1.04 2.74-2.324 0-.07-.014-.138-.017-.208.005-.07.017-.136.017-.209 0-1.283-.836-2.324-2.74-2.324-1.825 0-3.961 1.601-4.135 2.533h-.035C11.72 3.6 9.581 2 7.758 2 5.853 2 5.02 3.04 5.02 4.326c0 .07.014.138.017.209-.005.068-.017.137-.017.208 0 1.284.836 2.324 2.74 2.324 1.105 0 2.326-.243 3.156-.696V9.48C7.573 9.608 5 10.37 5 11.29v1.446h.029c.097.316.493.61 1.119.86l1.23 7.094c0 .664 2.031 1.203 4.533 1.203 2.504 0 4.538-.537 4.538-1.203l1.228-7.093c.625-.25 1.023-.543 1.12-.86h.03V11.29c-.004-.92-2.575-1.681-5.919-1.811z"/></svg>