<svg width="24" height="24" viewBox="0 0 24 24" fill="currentColor" xmlns="http://www.w3.org/2000/svg"><path d="M1 11.908V8.197c0-.941 2.127-2.628 4.727-3.747L6.9 3.944c2.6-1.12 4.727-1.264 4.727-.32v3.264c.721-.143 1.875.039 3.514.71 2.091.857 4.345 2.25 5.06 3.199l3.753 1.515v2.425l-.518.224v2.108a.518.518 0 01-.517.515h-.687a.517.517 0 01-.514-.515V15.7l-7.537 3.245v2.014c0 .283-.23.515-.515.515h-.686a.516.516 0 01-.515-.515v-1.993l-9.182-3.71v1.563a.516.516 0 01-.516.515h-.685a.516.516 0 01-.515-.514v-2.254L1 14.335v-2.427z"/></svg>