<svg width="24" height="24" viewBox="0 0 24 24" fill="currentColor" xmlns="http://www.w3.org/2000/svg"><path d="M17.123 9.716l-9.93.09-.252 1.4 10.448-.113-.266-1.377z"/><path d="M23.764 16.282L20.82 6.926a.785.785 0 00-.75-.551H4.103a.78.78 0 00-.75.551l-2.94 9.356a.793.793 0 00.116.702.782.782 0 00.634.322h21.851c.251 0 .488-.12.634-.322a.783.783 0 00.116-.702zM2.985 13.46h8.704v-1.504l-8.261.09.255-.806 2.441-.027.251-1.398-2.254.022.255-.806 7.31-.067v-.98h.802v.976l7.267-.072.252.803-2.067.019.266 1.376 2.232-.023.251.803-8.201.082v1.512h8.704l.25.802h-2.62l.277 1.433h-.817l-.278-1.433H6.353l-.225 1.433h-.814l.225-1.433H2.73l.255-.802z"/></svg>