<svg width="24" height="24" viewBox="0 0 24 24" fill="currentColor" xmlns="http://www.w3.org/2000/svg"><path d="M11.608 2.384l.853.853.213.812a2.038 2.038 0 001.46 1.447l.81.215 3.992 4.011c3.186 3.185 1.868 6.724.811 8.874a.509.509 0 01-.96-.156c-.34-1.474-1.63-4.638-3.93-5.15-.437-.098-.687 0-1.367.678l-7.615 7.615a.625.625 0 01-.88 0L3.24 19.827a.623.623 0 010-.878l7.628-7.617a.243.243 0 01.023-.021l-.768-.768-.215-.82a2.036 2.036 0 00-1.449-1.451l-.812-.213-.853-.853a.511.511 0 010-.72l4.093-4.102a.51.51 0 01.72 0z"/></svg>