<svg width="24" height="24" viewBox="0 0 24 24" fill="currentColor" xmlns="http://www.w3.org/2000/svg"><path d="M21.808 6.594l-4.194-2.586a.672.672 0 00-.691-.023l-4.61 2.538a.68.68 0 01-.654 0l-4.61-2.538a.672.672 0 00-.692.023L2.179 6.594a.367.367 0 00-.175.313v12.629a.369.369 0 00.563.313L6.372 17.5a.673.673 0 01.692-.023l4.61 2.538a.68.68 0 00.654 0l4.61-2.538a.672.672 0 01.692.023l3.805 2.348a.368.368 0 00.563-.313V6.906a.367.367 0 00-.19-.312zM7.162 16.172a.48.48 0 01-.96 0V5.574a.48.48 0 11.96 0v10.598zm5.311 2.273a.48.48 0 01-.96 0v-9.99a.48.48 0 11.96 0v9.99zm5.255-2.273a.48.48 0 01-.961 0V5.574a.48.48 0 11.96 0v10.598z"/></svg>