<svg width="24" height="24" viewBox="0 0 24 24" fill="currentColor" xmlns="http://www.w3.org/2000/svg"><path d="M12.124 3.023C9.57 3.169 7.189 4.095 5.56 5.479l-.76-.761a.607.607 0 00-.851 0 .607.607 0 000 .85l.765.766C1.702 9.87 1.12 16.826 4.852 20.558c.068.067.135.127.32.288a.602.602 0 00.82 0c.165-.25.252-.577.053-.817-.54-.656-.229-1.946.694-2.873.963-.96 3.112-.476 3.761.17a.599.599 0 00.848 0c.007-.005.014-.016.022-.023a.602.602 0 00-.116-.938c-.162-.229-.255-.577-.255-.975 0-.697.266-1.425.716-2.044l2.947 2.948c-.063.337.02.697.278.96l2.276 2.272a2.731 2.731 0 001.947.807c.735 0 1.42-.285 1.934-.803l.004-.004a2.756 2.756 0 00.008-3.888l-.548-.552a1.083 1.083 0 00-1.53-.003v.003c-.42.42-.42 1.103 0 1.527l.548.55a.587.587 0 01-.004.833h-.004a.581.581 0 01-.825-.004l-2.272-2.276a1.07 1.07 0 00-.96-.28l-2.918-2.918c1.193-.86 2.595-.9 3.098-.398a.607.607 0 00.851 0 .607.607 0 000-.851c-.645-.645-1.133-2.794-.169-3.758.926-.926 2.213-1.24 2.869-.7.24.198.547.168.769-.091.217-.225.184-.626-.015-.862a4.482 4.482 0 00-.214-.237c-1.852-1.852-4.575-2.778-7.661-2.598z"/></svg>