<svg width="24" height="24" viewBox="0 0 24 24" fill="currentColor" xmlns="http://www.w3.org/2000/svg"><path d="M16.763 8.578l-9.388.087-.238 1.32 9.88-.104-.254-1.303zM12.383 10.69v1.427h3.828a13.3 13.3 0 00.577-1.473l-4.405.046z"/><path d="M23.048 14.786l-2.783-8.848a.748.748 0 00-.709-.523H4.452a.745.745 0 00-.71.523L2.35 10.356.96 14.774a.747.747 0 00.11.663c.019.025.042.044.061.065a.736.736 0 00.538.239h11.445a.69.69 0 01.095-1.31c1.271-.316 2.02-.807 2.562-1.566H6.58l-.213 1.356h-.769l.214-1.356H3.154l.238-.769h8.232v-1.42l-7.811.083.24-.768 2.305-.025.238-1.322-2.132.021.24-.768 6.916-.065v-.926h.768v.92l6.87-.063.24.756-1.958.02.193.96c.115.01.226.048.322.112a.676.676 0 01.206.224l1.65-.017.238.757-1.621.017c.161.51.354 1.008.576 1.493h1.514l.24.768h-1.323c.541.76 1.288 1.25 2.56 1.566a.69.69 0 01.094 1.31h.142a.744.744 0 00.6-.303.823.823 0 00.054-.098.732.732 0 00.063-.542z"/><path d="M17.654 18.584c.595-1.604 1.296-2.755 2.856-3.471-1.56-.715-2.261-1.865-2.857-3.471-.595 1.606-1.296 2.756-2.856 3.47 1.56.717 2.26 1.868 2.857 3.472z"/></svg>