<svg width="24" height="24" viewBox="0 0 24 24" fill="currentColor" xmlns="http://www.w3.org/2000/svg"><path d="M18.383 9.953a.81.81 0 001.23-.14 164.562 164.562 0 012.4-3.438.809.809 0 00-.154-1.099c-1.095-.866-3.57-2.651-6.22-3.303 0 1.185-1.19 2.662-3.6 2.628-2.416-.034-3.563-1.545-3.533-2.726-2.667.581-5.19 2.295-6.308 3.135a.803.803 0 00-.184 1.091c.582.867 1.643 2.449 2.307 3.506a.807.807 0 001.222.17c.806-.717 1.2-1.092 1.2-1.092l-2.07 11.096a.708.708 0 00.446.795c1.68.63 3.89 1.144 6.668 1.181 2.97.042 5.299-.48 7.039-1.12a.708.708 0 00.446-.796L17.22 8.831c-.004 0 .378.383 1.162 1.122zm-6.439 1.458a1.132 1.132 0 01-1.117-1.151 1.132 1.132 0 011.151-1.117 1.132 1.132 0 011.118 1.15 1.137 1.137 0 01-1.152 1.118zm.042-3.213a1.132 1.132 0 01-1.118-1.152A1.132 1.132 0 0112.02 5.93a1.132 1.132 0 011.118 1.151 1.132 1.132 0 01-1.151 1.117z"/></svg>