<svg width="24" height="24" viewBox="0 0 24 24" fill="currentColor" xmlns="http://www.w3.org/2000/svg"><path d="M20.14 10.7V9.247h-1.746l.026-.803-1.056-2.185v-.002c-.365-.753-.96-.753-1.324 0l-1.06 2.187.027.805H13.58l.025-.805L12.55 6.26v-.002c-.365-.753-.96-.753-1.324 0l-1.06 2.187.026.805H8.765l.026-.805L7.735 6.26v-.002c-.364-.753-.96-.753-1.324 0L5.352 8.444l.026.805H3.633v1.453h1.79l.124 3.932H3.633v1.453H5.59l.062 1.986h2.835l.062-1.988h1.854l.063 1.988h2.836l.062-1.988h1.853l.064 1.988h2.835l.062-1.988h1.96v-1.45h-1.914l.124-3.933h1.79V10.7zM8.596 14.634l.124-3.932h1.516l.124 3.932H8.597zm6.578 0h-1.764l.124-3.932h1.516l.124 3.932z"/></svg>