<svg width="24" height="24" viewBox="0 0 24 24" fill="currentColor" xmlns="http://www.w3.org/2000/svg"><path d="M18.245 11.727l-.027-.088c-.002-.01-.004-.019-.008-.03L15.61 2.922c0-.509-1.561-.922-3.488-.922-1.922 0-3.483.413-3.483.922L6 11.727h.021c-.002.012-.008.023-.008.035 0 .7 2.139 1.281 4.966 1.408v4.195c-2.691.145-4.72.782-4.72 1.551v.526c0 .874 2.626 1.58 5.864 1.58 3.24 0 5.867-.708 5.867-1.58v-.526c0-.769-2.03-1.408-4.72-1.551v-4.193a21.979 21.979 0 001.705-.14v2.898h.923v-3.04c1.428-.262 2.347-.67 2.347-1.128 0-.012-.006-.023-.008-.035h.008z"/></svg>