<svg width="24" height="24" viewBox="0 0 24 24" fill="currentColor" xmlns="http://www.w3.org/2000/svg"><path d="M19.943 12.3H17.69V7.98c1.371 0 2.246-.404 2.324-1.136a.302.302 0 000-.07v-.018-.02c0-.73-.895-1.242-2.145-1.327-.992-2.576-3.78-2.703-3.78-2.703s-.287-1.504-2.078-1.504c-1.79 0-2.078 1.504-2.078 1.504s-2.788.127-3.779 2.703c-1.25.085-2.146.598-2.146 1.328V6.772a.302.302 0 000 .071c.08.732.96 1.136 2.325 1.136V12.3h-1.5v-2.017a1.625 1.625 0 00-3.251 0v2.778a2.497 2.497 0 002.497 2.497h2.254v4.484c-.95.203-1.212.805-1.212 1.379 0 .891 1.166 1.377 6.88 1.377 5.716 0 6.882-.486 6.882-1.375 0-.576-.263-1.176-1.212-1.38v-4.493h1.5v2.033a1.627 1.627 0 002.774 1.149 1.625 1.625 0 00.476-1.15v-2.785a2.497 2.497 0 00-2.478-2.497zM7.91 10.924c0-1.062.618-1.75 1.577-1.75s1.58.688 1.58 1.75c0 1.063-.621 1.75-1.58 1.75-.959 0-1.577-.685-1.577-1.75zm4.11 6.173c-1.14 0-1.855-.657-1.855-1.562s.715-1.56 1.856-1.56 1.856.655 1.856 1.56-.715 1.562-1.856 1.562zm2.535-4.419c-.96 0-1.58-.685-1.58-1.75 0-1.064.621-1.75 1.58-1.75.958 0 1.577.688 1.577 1.75 0 1.063-.619 1.747-1.577 1.747v.003z"/></svg>