<svg width="24" height="24" viewBox="0 0 24 24" xmlns="http://www.w3.org/2000/svg"><path d="M2.625 19.138c.64-.958 1.598-3.197 1.918-5.753.32-2.557.959-4.793 2.237-6.072 1.278-1.278 2.876-1.918 4.793-1.918 1.95 0 4.473.958 4.793 2.877.958-1.917 1.278-3.356 1.598-5.275.638.32 1.757 1.12 2.237 1.438-1.279 1.278-2.237 2.556-3.197 4.155 1.918-.32 4.155 1.598 4.155 4.792 0 2.396-.638 4.793-3.195 5.754-.052.02.762-.673.638-1.919-.159-1.598-1.278-2.556-2.877-2.556-1.598 0-3.035 1.278-3.035 3.035 0 1.917 1.437 2.716 3.036 2.716-2.555 1.282-9.586.644-13.101-1.274z" fill="currentColor"/></svg>