<svg width="24" height="24" viewBox="0 0 24 24" fill="currentColor" xmlns="http://www.w3.org/2000/svg"><path d="M14.07 6.23V4.994l-2.571-1.302L5.36 7.066v1.98L3.632 8.043v-1.79L9.78 2.817 7.54 1.674 2.664 4.162l-1.648.84v7.31l6.531 3.328 4.497-2.294a6.989 6.989 0 01-.28-1.971 6.735 6.735 0 012.305-5.144zM21.839 20.32a1.379 1.379 0 00-.42-.457 3.46 3.46 0 00-.676-.369l-.08-.033-.256-.092a7.075 7.075 0 00-.843-.215l-.192-.035c.095.244.215.477.357.696a.383.383 0 01-.324.59.385.385 0 01-.325-.179 3.733 3.733 0 01-.659-2.148v-.226a5.472 5.472 0 01-1.339 0v.226a3.731 3.731 0 01-.657 2.148.385.385 0 01-.65-.411 3.79 3.79 0 00.356-.696l-.192.035c-.62.1-1.216.317-1.756.638-.27.153-.476.4-.576.695a.696.696 0 00.027.425c.048.118.117.226.204.319.357.337.79.582 1.264.714.276.09.557.162.843.215l.192.035a9.731 9.731 0 001.621.13h.425c.138 0 .279-.015.415-.026a8.531 8.531 0 001.314-.208 5.744 5.744 0 00.924-.305 3.164 3.164 0 00.578-.33c.081-.058.158-.122.229-.193.062-.064.117-.136.163-.213.014-.025.027-.048.038-.073a.705.705 0 00-.011-.647l.006-.01z"/><path d="M17.086 17.08a4.69 4.69 0 001.345 0 4.85 4.85 0 00.768-.176l.117-.036a5.124 5.124 0 002.052-1.33 5.623 5.623 0 00.54-.66 6.116 6.116 0 001.074-3.5c0-2.089-1.009-3.916-2.517-4.924a4.941 4.941 0 00-1.404-.653 4.787 4.787 0 00-3.57.386 5.463 5.463 0 00-.445.267 5.362 5.362 0 00-1.153 1.053 6.072 6.072 0 00-1.362 3.87c0 .437.045.872.135 1.3a6.037 6.037 0 00.626 1.684c.114.213.243.418.384.615.027.036.052.073.08.107.095.125.191.248.303.363a5.15 5.15 0 002.14 1.428l.115.036a4.9 4.9 0 00.772.17zm4.002-5.724c0 1.864-1.264 3.4-2.897 3.635l.83-1.114 1.14-1.537.915-1.226c.004.083.012.162.012.242zm-1.044-1.298l.511-.686a6.425 6.425 0 01.173.332c.072.157.133.318.183.483l-.613.822-2.413 3.25-.551.734a3.054 3.054 0 01-.797-.225l.474-.636 3.034-4.074zm-4.589 2.568l-.513.69a4.576 4.576 0 01-.177-.35 4.161 4.161 0 01-.209-.6 4.023 4.023 0 01.02-2.099 3.789 3.789 0 01.714-1.375c.107-.13.223-.252.348-.365a3.18 3.18 0 011.446-.769c.22-.05.446-.075.673-.075.41.002.816.086 1.194.246l-.476.64-3.02 4.057z"/></svg>