<svg width="24" height="24" viewBox="0 0 24 24" xmlns="http://www.w3.org/2000/svg"><path d="M21.06 11.332s.814-2.61-1.653-2.055c-1.234.282-.604 2.176-.604 2.176l-2.528 1.42c.563-.73 1.024-1.8.927-2.767.33-.386.607-.87.79-1.481.68-2.246-.382-6.803-4.946-7.421-4.563-.615-6.573 2.4-7.462 3.521-.904 1.144-1.466.772-3.386 2.059C1.08 7.537.379 9.13.953 10.84c.791 2.363 2.426 2.097 3.322 1.984.649-.082.657.521.908.863-1.185.093-2.539-.012-3.368-.912.417.765 1.028 1.609 1.737 2.156 1.132.882 2.516.503 4.147-.25 1.335-.616 4.965-.57 6.791-.807l-5.35 3.012s-1.725-1.638-2.932.188c-1.204 1.822 1.807 2.328 1.807 2.328S6.5 22.245 9.204 22.507c2.704.263 2.077-2.932 2.077-2.932l8.7-6c.296 1.373 3.064 1.913 3.405-.094.341-2.01-2.325-2.149-2.325-2.149zm-8.797 1.77c.105-.056.213-.142.334-.277 1.012-1.125.112-.754 1.462-1.087.506-.128 1.091-.282 1.661-.54a1.221 1.221 0 01-.09.24c-.379.742-2.025 1.432-3.367 1.664zm1.271-7.432c2.07 2.325.735 3.431-.773 3.866-1.616.469-5.272.105-5.41-2.25-.124-2.074 4.113-3.945 6.183-1.616zm-8.989 5.025c-.753.079-2.505-.69-1.252-1.886.709-.687 2.531-.199 2.809.277.277.473-.807 1.53-1.557 1.609zm2.835 2.696c-.236.011-.667.098-1.192.18.225-.36.364-.903 1.016-1.117.154-.049.503.161.709.127-.071.465.075.777-.533.81zm3.113-.483c-.154-.214-.285-.477-.42-.728.33.154.405-.18.54-.18.405 0 .731 1.009 1.26 1.155-.66.071-1.196.011-1.38-.247z" fill="currentColor"/></svg>