<svg width="24" height="24" viewBox="0 0 24 24" fill="currentColor" xmlns="http://www.w3.org/2000/svg"><path d="M18.461 11.662l.882-5.295h-.023C19.316 4.507 15.99 3 11.884 3 7.777 3 4.447 4.508 4.447 6.367h-.026l.878 5.295c-2.318.96-3.799 2.423-3.799 4.054 0 2.899 4.65 5.246 10.384 5.246 5.733 0 10.38-2.347 10.38-5.246-.004-1.631-1.485-3.093-3.803-4.053zm-.056 3.27c0 1.632-2.918 2.955-6.521 2.955-3.604 0-6.525-1.323-6.525-2.955l-.165-2.126c0 .417.187.81.521 1.174.334.36.817.682 1.41.956 1.215.555 2.899.904 4.759.904 1.86 0 3.547-.345 4.755-.904.596-.274 1.076-.596 1.41-.956.334-.36.517-.758.517-1.174l-.161 2.127z"/></svg>