<svg width="24" height="24" viewBox="0 0 24 24" xmlns="http://www.w3.org/2000/svg"><path d="M23.243 20.899c-.022-.177-.06-.3-.202-.308-.904-.06-.822.045-1.414-.049l-.304-.723c.656-.105.694-.06 1.039-.086.127-.008.281-.162.296-.29.015-.142-.101-.562-.101-.562-.079-.3-.368-.273-.521-.273-.484 0-.495.018-1.17.138l-.41-.952c.488-.154.47-.143.908-.315.128-.049.386-.21.375-.379-.011-.154-.142-.405-.202-.548-.068-.16-.323-.236-.465-.194-.439.123-.518.22-1.061.397l-.42-.997c.326-.113.386-.135.937-.492.116-.075.191-.206.135-.334l-.236-.566a.26.26 0 00-.338-.139c-.858.36-.678.285-.963.45l-.41-.963c.3-.143.338-.15.56-.222.13-.04.457-.165.453-.303a5.21 5.21 0 00-.093-.559c-.023-.161-.117-.274-.263-.259-.439.038-.641.094-1.095.304l-.442-1.027c.232-.038.746-.117.847-.132.244-.041.27-.168.285-.303.015-.143-.094-.473-.094-.473-.026-.109-.06-.285-.206-.311a4.628 4.628 0 00-1.316-.03l-.379-.773c.09-.056.225-.09.641.038a.26.26 0 00.319-.154l.214-.574c.052-.138-.026-.303-.169-.337-.75-.169-.908-.139-1.451-.034l-.334-.772c.086 0 .394-.027.945-.098a.258.258 0 00.221-.289l-.079-.611c-.018-.139-.146-.217-.285-.221-1.042-.038-1.15-.023-1.706-.034 0 0-6.345.026-6.753.026-.008-.75-.057-1.395-.057-1.395a4.14 4.14 0 00-5.175-2.745A4.153 4.153 0 00.56 7.61s1.665 1.879 2.277 3.716c.607 1.834 1.076 7.2 1.076 7.2.247 1.624 1.8 3.233 4.747 3.233h12.637c.862-.034.701-.034 1.695-.064.139-.004.27-.06.3-.195l-.049-.6zm-6.784-1.035c-1.41.093-3.708.217-5.715.217-1.185 0-2.265-.045-3-.165v-.003a2.879 2.879 0 01-2.388-3.353c.232-1.346 1.365-2.31 2.73-2.359 1.635-.056 3.134 1.031 2.973 2.873-.045.506-.285.795-.716 1.016-.51.262-1.132.169-1.781-.251a.44.44 0 00-.581.082l-.6.743a.431.431 0 00.086.626 4.06 4.06 0 002.295.716c.498 0 .933-.112 1.41-.303 1.192-.473 1.53-1.707 1.582-2.033a1.64 1.64 0 00.03-.24c.004-.03.004-.064.008-.094v-.011a3.514 3.514 0 00-.109-1.174c-.814-2.887-2.572-4.473-3.124-5.876a19.04 19.04 0 01-.603-1.792h5.295l4.848 11.377h-2.64v.004z" fill="currentColor"/></svg>