<svg width="24" height="24" viewBox="0 0 24 24" fill="currentColor" xmlns="http://www.w3.org/2000/svg"><path d="M5.768 16.481c.487-2.914 2.527-4.639 6.071-5.134l-.206-.794c-.54-2.104-.69-2.723-.679-3.064.023-.919.604-1.369 1.11-1.481.27-.068 2.58-.653 4.376-1.08-.138-.777-.243-1.332-.27-1.474-.06-.349-.202-.473-.483-.45-1.358.112-6.255.821-6.255.821-.132.011-.327.086-.38.476-.052.39.665 4.122.83 5.475-4.058-.187-6.075 1.219-6.765 3.713-.525 1.89.783 3.945 2.7 4.586a4.3 4.3 0 01-.05-1.594z"/><path d="M21.046 14.625c-.285-2.696-1.909-8.179-2.063-8.707-.082-.285-.206-.405-.408-.405a.505.505 0 00-.124.015c-.383.07-1.058.225-1.815.405-1.886.446-4.327 1.06-4.327 1.06-.132.023-.32.12-.327.51-.011.39.833 3.376 1.14 4.696-4.061.229-5.921 1.826-6.349 4.361a3.233 3.233 0 00.15 1.616c.53 1.52 2.1 2.723 3.867 2.723.232 0 .469-.023.705-.064 2.884-.529 7.102-3.431 8.317-4.016.315-.154 1.391-.728 1.234-2.194z"/></svg>