<svg width="24" height="24" viewBox="0 0 24 24" fill="currentColor" xmlns="http://www.w3.org/2000/svg"><path d="M17.967 6.606v2.405h-1.57a4.625 4.625 0 00-2.847-2.443V5.91h2.795a1.406 1.406 0 100-2.812h-2.816A1.322 1.322 0 0012.228 2c-.652 0-1.194.474-1.3 1.098H8.108a1.406 1.406 0 100 2.812h2.795v.658a4.625 4.625 0 00-2.846 2.443H6.474a3.94 3.94 0 00-3.935 3.935v3.06h3.673v-3.06c0-.14.122-.262.262-.262h1.454a4.616 4.616 0 008.597 0h1.442v2.404h3.401V6.606h-3.401zM2.004 20.322a2.217 2.217 0 004.434 0c0-1.224-2.217-3.952-2.217-3.952s-2.217 2.728-2.217 3.952z"/></svg>