<svg width="24" height="24" viewBox="0 0 24 24" fill="currentColor" xmlns="http://www.w3.org/2000/svg"><path d="M17.4 6.189c-1.523-2.148-3.49-3.38-5.4-3.38-1.91 0-3.876 1.232-5.4 3.38a12.535 12.535 0 00-2.295 7.073c0 4.816 3.02 7.928 7.695 7.928 4.676 0 7.696-3.112 7.696-7.928A12.534 12.534 0 0017.4 6.189zm-7.45 9.326l-1.85-.972-1.85.972.354-2.057L5.11 12l2.067-.302.924-1.873.924 1.873 2.067.302-1.495 1.458.354 2.057zm.452-6.531l.329-1.921L9.335 5.7l1.92-.28.864-1.749.864 1.748 1.921.28-1.397 1.363.33 1.92-1.728-.906-1.708.907zm5.187 8.272l-2.161 1.135.413-2.405-1.748-1.704 2.416-.352 1.084-2.184 1.08 2.19 2.416.352-1.748 1.704.413 2.405-2.165-1.141z"/></svg>