<svg width="24" height="24" viewBox="0 0 24 24" fill="currentColor" xmlns="http://www.w3.org/2000/svg"><path d="M20.355 8.572h-1.873l.018-.098a.219.219 0 00-.192-.283H14.67a3.572 3.572 0 01-5.544 0H5.49a.219.219 0 00-.192.283l.018.098H3.642a1.537 1.537 0 00-1.537 1.537v.672a.864.864 0 00.865.864h.121a.74.74 0 00.743-.741.794.794 0 01.794-.795h.96l.192 1.102.193.788a.221.221 0 00.213.167h2.003a.218.218 0 01.217.192l1.053 5.243a.221.221 0 00.22.192h.673a.219.219 0 01.22.219v4.927a.221.221 0 00.219.221h2.224a.22.22 0 00.219-.22v-4.915a.22.22 0 01.219-.219h.674a.22.22 0 00.22-.192l1.052-5.242a.217.217 0 01.217-.192h2.004a.221.221 0 00.213-.168l.192-.787.192-1.103h1.153a.794.794 0 01.793.795.741.741 0 00.744.742h.12a.865.865 0 00.865-.865v-.672a1.535 1.535 0 00-1.537-1.55zM12 14.912a.936.936 0 110-1.872.936.936 0 010 1.871zm0-2.74a.936.936 0 110-1.872.936.936 0 010 1.872z"/><path d="M9.287 5.305a2.234 2.234 0 00-.087.623 2.7 2.7 0 005.399 0c0-.21-.029-.42-.087-.623h3.63c.372 0 .673-.213.673-.48s-.302-.48-.672-.48h-2.194a3.982 3.982 0 00-7.907 0H5.848c-.37 0-.672.215-.672.48s.301.48.672.48h3.439z"/></svg>