<svg width="24" height="24" viewBox="0 0 24 24" fill="currentColor" xmlns="http://www.w3.org/2000/svg"><path fill-rule="evenodd" clip-rule="evenodd" d="M14.848 3a.97.97 0 00-.73.328l-.008.009-.006.008-.39.483-.24.298.005.003-.941 1.197a.8.8 0 00-.143.702l.001.007.002.007.832 2.634-.203.23c-.55.624-1.664 1.891-2.512 2.86a15.534 15.534 0 00-.813-.54l-.033-.02-.032-.02-.072-.043-.072-.045-.014-.008a6.457 6.457 0 01-.085-.05l-.061-.037-.04-.023a3.3 3.3 0 00-.1-.056l-.029-.016h-.001l-.002-.002a21.32 21.32 0 00-.124-.068h-.001l-.1-.056-.034-.018a16.281 16.281 0 01-.328-.17l-.037-.018a3.156 3.156 0 00-.127-.061l-.041-.02-.003-.001h-.003c-.015-.009-.03-.016-.046-.023l-.027-.012a4.849 4.849 0 00-.171-.078l-.043-.018h-.001l-.103-.043-.068-.027-.029-.012a.485.485 0 00-.028-.012l-.007-.003h-.003l-.013-.006-.016-.006-.016-.006-.035-.012-.035-.013-.038-.014a1.533 1.533 0 00-.127-.042h-.001l-.023-.008-.066-.021-.056-.016-.052-.015-.007-.002-.027-.006a.278.278 0 00-.025-.006l-.025-.006a.41.41 0 00-.039-.009.322.322 0 00-.039-.008c-.002 0-.003 0-.005-.002-.007-.002-.012-.002-.017-.002l-.007-.001a1.559 1.559 0 01-.083-.012c-.005 0-.01 0-.016-.002-.01-.002-.018-.002-.028-.002h-.006l-.005-.001h-.017a.11.11 0 01-.012-.001l-.013-.001h-.005a.34.34 0 00-.075.007c-.553.103-2.629 2.48-3.437 4.562l-.032.09a2.08 2.08 0 01-.022.066l-.019.051a3.75 3.75 0 00-.11.35l-.022.084-.025.088-.025.089-.015.071c-.012.05-.022.1-.032.15l-.014.068-.01.048a2.135 2.135 0 00-.04.222 9.66 9.66 0 01-.045.313 4.332 4.332 0 00-.02.21l-.016.16-.003.036a7.12 7.12 0 00-.017.422c0 .009 0 .017-.002.026v.021L3 17.201c-.013 1.495.393 2.949 1.255 3.695l.01.01c1.391 1.186 4.224 1.28 6.482.063 2.26-1.217 4.326-3.724 4.347-4.28a.417.417 0 00-.014-.105v-.007-.003l-.002-.004a.963.963 0 00-.049-.142l-.002-.004a2.375 2.375 0 00-.07-.143l-.003-.007-.012-.022-.007-.013-.008-.014a3.082 3.082 0 00-.08-.134l-.007-.012a.626.626 0 00-.042-.067l-.021-.032c-.026-.039-.052-.08-.081-.12a.184.184 0 00-.008-.013l-.008-.01a5.073 5.073 0 00-.136-.185.46.46 0 01-.018-.025l-.019-.026a13.605 13.605 0 00-.408-.507l-.012-.015c-.008-.01-.359-.411-.547-.612a23.09 23.09 0 00-1.001-1.003c.935-1.063 2.176-2.486 2.674-3.057l.01-.01 2.683.127.105.005H18.02l.01.002h.059a.773.773 0 00.298-.058l.029-.012.003-.001a.76.76 0 00.257-.186l1.617-1.692.004-.003.003-.005.01-.012.274-.287.008-.009.009-.008c.177-.215.258-.483.23-.76a1.013 1.013 0 00-.381-.696l-.006-.005-.005-.003-4.877-3.571-.015-.01-.015-.009A1.361 1.361 0 0014.848 3zm3.56 4.754c.001-.003.003-.007.006-.01a.23.23 0 00.044-.164l-.003-.012-.004-.012a.438.438 0 01-.003-.012c-.004-.015-.008-.03-.015-.044a.216.216 0 00-.06-.071l-3.209-2.29a.226.226 0 00-.31.064l-.38.513-.228.308.515 1.655.942.653 2.009.076.683-.636c.006-.005.009-.011.012-.018z"/></svg>