<svg width="24" height="24" viewBox="0 0 24 24" fill="currentColor" xmlns="http://www.w3.org/2000/svg"><path d="M15.311 8.783l-.494.15-.495.155-6.847 2.098a3.694 3.694 0 01-3.481-.714 3.634 3.634 0 01-.495-.514 3.629 3.629 0 01-.495-.828v10.888a.497.497 0 00.682.458l9.98-4.053c-.445-.278-.988-.5-1.668-.668-.113-.028-.113-.186 0-.214 1.874-.464 2.703-1.327 3.313-2.678v-4.08zm.72-.999a2.923 2.923 0 001.743-1.442 2.919 2.919 0 00.215-2.25 2.94 2.94 0 00-3.693-1.96l-8.77 2.691a2.963 2.963 0 00-1.533 4.56 2.934 2.934 0 002.399 1.224c.29 0 .584-.042.868-.13l6.027-1.849 1.53-.47.478-.148.735-.226zm-8.023.348c-.031.173-.079.34-.145.496-.31.732-.97 1.238-1.736 1.238-.767 0-1.43-.506-1.736-1.238a2.456 2.456 0 01-.182-.916l.003-.075c.035-1.153.877-2.076 1.915-2.076 1.037 0 1.877.923 1.914 2.076 0 .009.002.018.003.026a.52.52 0 01.003.05c0 .143-.015.283-.039.419z"/><path d="M18.765 15.632c-1.681-.416-2.036-1.336-2.547-2.918a.066.066 0 00-.027-.036.069.069 0 00-.06-.009.066.066 0 00-.046.046c-.512 1.583-.866 2.503-2.547 2.918-.071.018-.071.118 0 .135 1.68.416 2.035 1.336 2.547 2.918.008.025.025.04.045.046a.069.069 0 00.06-.008.072.072 0 00.027-.037c.512-1.583.867-2.503 2.548-2.918.07-.02.07-.12 0-.137z"/></svg>