<svg width="24" height="24" viewBox="0 0 24 24" fill="currentColor" xmlns="http://www.w3.org/2000/svg"><path d="M21.888 9.32C22.066 6.397 17.548 4 11.945 4 6.344 4 1.827 6.397 2.005 9.318v.61c-.088 1.416.938 2.705 2.646 3.661L3.97 18.3c-.107.744.436 1.439 1.213 1.552.776.11 1.492-.4 1.6-1.144l.582-4.039a17.75 17.75 0 004.582.582c1.654 0 3.21-.212 4.581-.582l.584 4.039c.107.744.824 1.256 1.6 1.143.776-.11 1.32-.805 1.212-1.55l-.68-4.71c1.709-.957 2.734-2.244 2.646-3.662-.002-.166-.002-.442-.002-.608z"/></svg>