<svg width="24" height="24" viewBox="0 0 24 24" fill="currentColor" xmlns="http://www.w3.org/2000/svg"><path d="M20.597 3.27c-.45-1.508-1.782-2.52-3.315-2.52-.345 0-.687.052-1.02.157L5.96 4.152C4.472 4.62 3.512 6.026 3.508 7.55a3.528 3.528 0 00.154 1.053c.112.383.285.736.502 1.043a3.422 3.422 0 003.833 1.316l7.076-2.227 1.796-.566.563-.177.866-.27a3.466 3.466 0 002.047-1.74c.435-.84.525-1.803.252-2.711zM8.877 8.137a2.873 2.873 0 01-.172.597c-.363.881-1.136 1.492-2.04 1.492-.9 0-1.68-.607-2.04-1.492a3.122 3.122 0 01-.172-.597 3.217 3.217 0 01-.041-.506c0-.03 0-.06.003-.09.042-1.387 1.032-2.501 2.247-2.501 1.218 0 2.205 1.114 2.246 2.501.004.03.007.064.007.09.008.176-.01.345-.037.506z"/><path d="M16.29 9.288l-8.04 2.528a4.207 4.207 0 01-1.271.199 4.267 4.267 0 01-3.398-1.68A4.455 4.455 0 013 9.337v13.118a.61.61 0 00.255.495.566.566 0 00.544.056l13.29-5.531a.602.602 0 00.36-.555v-8l-.582.18-.577.188z"/></svg>