<svg width="24" height="24" viewBox="0 0 24 24" fill="currentColor" xmlns="http://www.w3.org/2000/svg"><path d="M22.778 7.781c-1.188-.941-3.873-2.865-6.75-3.57.004 1.283-1.282 2.888-3.896 2.858-2.614-.03-3.859-1.662-3.829-2.944-2.89.638-5.62 2.501-6.828 3.412a.873.873 0 00-.2 1.186c.635.937 1.786 2.65 2.513 3.794a.874.874 0 001.32.18c.874-.78 1.302-1.188 1.302-1.188l-1.403 5.137a2.077 2.077 0 001.114 2.427c1.144.543 3.019 1.117 5.869 1.15 2.853.035 4.74-.498 5.895-1.015a2.08 2.08 0 001.17-2.397l-1.302-5.261s.417.473 1.268 1.294a.875.875 0 001.335-.143 194.6 194.6 0 012.591-3.731.864.864 0 00-.169-1.189zM12.05 14.453a1.23 1.23 0 11.031-2.462 1.23 1.23 0 01-.031 2.462zm.037-3.484a1.23 1.23 0 11.032-2.462 1.23 1.23 0 01-.032 2.462z"/></svg>