<svg width="24" height="24" viewBox="0 0 24 24" fill="currentColor" xmlns="http://www.w3.org/2000/svg"><path d="M19.86 9.199c-.979-1.125-4.545-4.208-6.716-6.735-.893-1.039-2.276-.732-2.276 1.177v10.583a8.377 8.377 0 00-1.872-.128c-2.756.094-5.096 1.991-5.238 4.485-.233 4.069 4.87 4.451 7.6 3.008 1.092-.578 2.01-1.549 2.36-2.734.25-.848.202-1.751.168-2.636-.082-2.037-.056-4.069-.056-6.102V9.68c0-.101.116-.165.199-.109.739.506 1.402 1.136 2.04 1.759.611.596 1.436 1.256 1.71 2.092.214.66.045 1.388-.218 2.029-.037.09-.075.18-.07.274.003.094.06.198.15.217.074.015.145-.019.213-.056 1.166-.634 2.16-1.609 2.49-2.925.446-1.759.079-3.109-.484-3.761z"/></svg>