<svg width="24" height="24" viewBox="0 0 24 24" fill="currentColor" xmlns="http://www.w3.org/2000/svg"><path d="M17.096 7.372c-.24 0-.476.027-.705.068v-.788c0-1.188-2.996-2.152-6.697-2.152C5.996 4.5 3 5.464 3 6.652v10.523c0 1.189 2.996 2.152 6.694 2.152 3.697 0 6.693-.963 6.693-2.152v-2.288a3.799 3.799 0 004.5-3.724 3.793 3.793 0 00-3.79-3.79zM9.694 8.3c-2.832 0-5.127-.634-5.127-1.418 0-.784 2.295-1.417 5.127-1.417 2.831 0 5.126.633 5.126 1.417S12.529 8.3 9.694 8.3zm7.402 4.661a1.71 1.71 0 01-.705-.158V9.526c.218-.094.454-.158.705-.158a1.8 1.8 0 011.796 1.797 1.794 1.794 0 01-1.796 1.796z"/></svg>