<svg width="24" height="24" viewBox="0 0 24 24" fill="currentColor" xmlns="http://www.w3.org/2000/svg"><path d="M21.362 18.835l.002-.025c0-.024-.008-.047-.008-.072a9.175 9.175 0 00-8.409-8.999V3h-1.53v6.74a9.175 9.175 0 00-8.41 8.998c0 .024-.007.05-.007.074l.002.025-.002.05h.008a2.29 2.29 0 002.288 2.22c1.241 0 2.25-.988 2.287-2.222H7.6a2.293 2.293 0 002.288 2.223c1.243 0 2.25-.99 2.29-2.223h.015a2.291 2.291 0 002.287 2.223 2.292 2.292 0 002.288-2.223h.016a2.288 2.288 0 004.573 0h.008l-.002-.05z"/></svg>