<svg width="24" height="24" viewBox="0 0 24 24" fill="currentColor" xmlns="http://www.w3.org/2000/svg"><path d="M20.005 3.993c-2.046-2.05-5.427-3.05-8.77.285-1.798 1.798-1.938 3.995-2.06 5.936-.091 1.417-.172 2.69-.783 3.826l-.443.452-.363-.361a.344.344 0 00-.485 0L2.207 19.02a.34.34 0 000 .484l2.288 2.288a.34.34 0 00.484 0l4.889-4.89a.344.344 0 000-.483l-.361-.37.441-.441c1.153-.619 2.461-.703 3.842-.79 1.94-.123 4.138-.263 5.937-2.06 3.329-3.336 2.328-6.719.278-8.765zm-1.744 3.02a7.926 7.926 0 01-1.708 2.405c-.976.976-3.135 2.004-4.61 2.636.68-1.581 1.711-3.685 2.635-4.61 1.618-1.618 3.266-2.225 3.73-1.758.318.317.074 1.033-.047 1.327zm-5.744-1.46c1.222-1.222 2.342-1.648 3.308-1.648.472.003.939.102 1.372.292-1.18.26-2.498 1.153-3.608 2.257-.986.984-1.96 2.882-2.642 4.382l.033-.509c.12-1.856.221-3.458 1.537-4.774zm5.928 5.929c-1.316 1.315-2.918 1.417-4.774 1.536l-.51.033c1.511-.682 3.398-1.656 4.383-2.641a9.156 9.156 0 002.015-2.867c.101-.244.18-.498.237-.756.524 1.208.51 2.833-1.35 4.695z"/></svg>