<svg width="24" height="24" viewBox="0 0 24 24" fill="currentColor" xmlns="http://www.w3.org/2000/svg"><path d="M18.313 12.014c-1.397 0-2.665 1.47-3.62 3.321-1.402-3.88-3.803-7.693-6.53-7.693-4.327 0-7.835 9.59-7.835 13.831h23.34c0-2.9-2.391-9.46-5.355-9.46zM3.044 17.79l1.668-2.881 1.667 2.881H3.044zm5.264-6.915l1.668 2.881H6.643l1.665-2.881zm4.857 8.837H9.92l1.665-2.882 1.6 2.772.068.117-.088-.008zm2.689-2.577l1.38-2.39 1.38 2.39h-2.76zm4.4.506l1.38 2.39H18.87l1.383-2.39zM17.353 10.36a3.917 3.917 0 10.004-7.834 3.917 3.917 0 00-.004 7.834z"/></svg>