<svg width="24" height="24" viewBox="0 0 24 24" fill="currentColor" xmlns="http://www.w3.org/2000/svg"><path d="M20.565 12.806a3.197 3.197 0 01-2.145-.827 3.195 3.195 0 01-4.292 0 3.195 3.195 0 01-4.292 0 3.195 3.195 0 01-4.291 0 3.179 3.179 0 01-3.28.61l.577 7.185a.728.728 0 00.713.659H14.12V15.6c0-.96 1.047-1.745 2.338-1.745 1.291 0 2.338.78 2.338 1.745v4.839h1.6a.728.728 0 00.713-.66l.586-7.184c-.36.139-.743.21-1.13.211zm-9.188 4.69H4.484v-3.064h6.893v3.064zM21.27 3.562a.768.768 0 01.748.655s.712 5.156.712 5.361a2.145 2.145 0 11-4.291 0 2.146 2.146 0 11-4.292 0 2.146 2.146 0 11-4.29 0 2.148 2.148 0 01-4.293 0 2.146 2.146 0 11-4.29 0c0-.205.711-5.361.711-5.361a.778.778 0 01.75-.655H21.27z"/></svg>