<svg width="24" height="24" viewBox="0 0 24 24" fill="none" xmlns="http://www.w3.org/2000/svg"><path d="M12.29 16.139v-.58c.363-.073.617-.255.617-.472 0-.29-.4-.508-.907-.508-.508 0-.908.217-.908.508 0 .217.255.399.617.471v.581l-.98 1.016c-.108.109-.108.29 0 .436a.331.331 0 00.436 0l.871-.908.871.908c.073.072.145.108.218.108a.516.516 0 00.217-.072c.11-.109.11-.29 0-.435l-1.052-1.053zm2.832-9.943L13.96 9.244c.726.218 1.525.544 2.25 1.016l-1.088-4.064zM7.827 10.26a6.87 6.87 0 012.25-1.016L8.915 6.196 7.827 10.26zm.508 3.375a.976.976 0 00-.98.98c0 .545.436.981.98.981.545 0 .98-.436.98-.98-.035-.545-.471-.981-.98-.981z" fill="currentColor"/><path d="M3 1.296V21.8h18V1.296H3zm9 18.508c-.363 0-6.605.4-6.605-4.754 0-1.125.254-2.032.617-2.794l2.286-8.637a.425.425 0 01.4-.327h.036c.218 0 .363.11.435.29l2.069 5.408c.29-.036.58-.073.762-.073.218 0 .472 0 .762.073l2.069-5.407a.438.438 0 01.435-.29c.182 0 .363.144.4.326l2.286 8.637c.399.762.653 1.67.653 2.794 0 5.117-6.242 4.754-6.605 4.754z" fill="currentColor"/><path d="M15.702 13.635a.976.976 0 00-.98.98c0 .545.435.981.98.981.545 0 .98-.436.98-.98-.036-.545-.471-.981-.98-.981z" fill="currentColor"/></svg>