<svg width="24" height="24" viewBox="0 0 24 24" fill="currentColor" xmlns="http://www.w3.org/2000/svg"><path d="M22.728 12.979l-1.894-5.636c-.439-.807-1.312-1.215-2.216-1.148l-.713-2.648c-.555-1.192-2.05-1.646-3.326-1L8.602 5.564c-.057.03-.102.067-.158.097-1.597.016-3.27.364-4.684 1.05-2.876 1.4-3.873 4.538-2.205 7.043.788 1.185 1.564 2.239 2.69 2.768.127.7.42 1.39.9 2.024 1.75 2.307 3.412 4.08 7.825 1.793l.012.011 4.627-2.587c.004 0 .004 0 .008-.004l3.81-2.13c1.252-.694 1.93-1.493 1.3-2.651zm-14.565-.281a.44.44 0 01-.398-.477.436.436 0 01.477-.397c1.005.09 2.328 1.653 2.617 2.287a.438.438 0 01-.217.582.45.45 0 01-.18.04.44.44 0 01-.402-.258c-.258-.566-1.376-1.729-1.897-1.777zm4.47.978a.436.436 0 01-.581-.217c-.26-.566-1.377-1.729-1.898-1.778a.44.44 0 01-.397-.476.44.44 0 01.476-.398c1.005.09 2.329 1.654 2.617 2.288a.443.443 0 01-.217.581zm-1.264-8.974l1.871-.885 1.797-.847.037-.019c.503-.24 1.53-.191 1.721.102l.473.723c.412.555-.304 1.054-.806 1.29l-.038.019-1.792.848-1.872.885c-1.008.476-2.14.39-2.527-.196-.383-.585.127-1.447 1.136-1.92zM5.71 6.29c1.005.09 2.33 1.654 2.618 2.287a.438.438 0 01-.218.582.431.431 0 01-.578-.218c-.258-.566-1.375-1.729-1.897-1.778a.44.44 0 01-.397-.476.428.428 0 01.472-.397zM3.243 7.7a.446.446 0 01.476-.398c1.005.09 2.329 1.654 2.618 2.288a.438.438 0 01-.218.581.436.436 0 01-.581-.217c-.259-.567-1.376-1.73-1.898-1.778a.436.436 0 01-.397-.476zm16.241 1.248l-.037.02-.075.04-1.662.92-1.81.997c-.98.54-2.116.521-2.532-.038-.42-.558.037-1.451 1.016-1.987l1.811-.998 1.737-.956.037-.019c.203-.112.499-.176.791-.199.41-.03.81.03.934.192l.518.694c.446.524-.24 1.068-.728 1.334z"/></svg>