<svg width="24" height="24" viewBox="0 0 24 24" fill="currentColor" xmlns="http://www.w3.org/2000/svg"><path d="M14.447 17.624a6.34 6.34 0 01-1.848.384 1.63 1.63 0 01-.204-.011c-1.221-.173-4.09-.742-6.203-1.66-1.233-.538-3.266-1.689-4.626-2.478a10.998 10.998 0 004.05 3.32c2.083.905 4.28 1.519 6.532 1.824 1.308.13 2.236-.134 3.396-.755a30.13 30.13 0 003.713-2.351 10.504 10.504 0 003.397-4.31c-.817.8-2.154 2.066-3.481 3.14-1.777 1.443-3.721 2.547-4.726 2.897z"/><path d="M12.528 17.05c.192.026.824-.062 1.602-.331.903-.315 2.765-1.378 4.438-2.732 1.673-1.354 3.42-3.074 3.988-3.65a10.979 10.979 0 00-4.84-3.9c-3.65-1.496-6.339-1.473-6.339-1.473A17.097 17.097 0 005.23 7.74c-2.15 1.594-3.39 3.842-3.882 4.88 1.223.722 3.819 2.226 5.227 2.839 2.017.877 4.776 1.423 5.953 1.59z"/></svg>