<svg width="24" height="24" viewBox="0 0 24 24" xmlns="http://www.w3.org/2000/svg"><path d="M1 5a4 4 0 014-4h14a4 4 0 014 4v13a5 5 0 01-5 5H6a5 5 0 01-5-5V5z" fill="#FFC700"/><path d="M18.737 0H5.263A5.272 5.272 0 000 5.263v13.45c0 2.9 2.363 5.263 5.263 5.263h13.45c2.9 0 5.263-2.364 5.263-5.263V5.263C24 2.363 21.636 0 18.737 0zm-.097 21.612h-2.461c0-.073 0-.122-.025-.195-.024-.073-.024-.122-.048-.195-.025-.048-.05-.122-.098-.17-.024-.049-.073-.098-.122-.146-.219-.22-.56-.317-.877-.268-.073 0-.122.024-.195.048-.049.025-.122.049-.17.098-.05.024-.098.073-.146.122-.171.195-.293.438-.293.682H9.771c0-.073 0-.122-.025-.195-.024-.073-.024-.122-.049-.195-.024-.049-.048-.122-.097-.17a.646.646 0 00-.122-.147c-.22-.22-.56-.317-.877-.268-.073 0-.122.025-.195.049-.049.024-.122.049-.17.097-.05.025-.098.073-.147.122-.048.049-.073.098-.121.146-.025.05-.074.098-.098.171a.459.459 0 00-.049.195c0 .073-.024.122-.024.195H5.36a2.984 2.984 0 01-2.972-2.973V16.18c.073 0 .122 0 .195-.025.048-.024.122-.024.17-.048.049-.025.122-.05.17-.098.05-.024.098-.073.147-.122a.927.927 0 00.292-.682.885.885 0 00-.292-.682c-.049-.049-.097-.073-.146-.122-.049-.024-.098-.073-.17-.098a.46.46 0 00-.196-.048c-.073-.025-.121-.025-.195-.025V9.771a.927.927 0 00.682-.292c.05-.05.074-.098.123-.147.024-.049.073-.097.097-.17a.452.452 0 00.049-.171c.024-.073.024-.122.024-.195 0-.073 0-.122-.024-.195a.352.352 0 00-.049-.17c-.024-.05-.049-.122-.097-.171-.025-.049-.074-.098-.122-.146-.049-.049-.098-.098-.147-.122-.048-.024-.097-.073-.17-.098a.459.459 0 00-.195-.048c-.073 0-.122-.025-.195-.025v-2.46a2.984 2.984 0 012.973-2.973h2.46c0 .073 0 .122.025.195.024.073.024.122.049.195a.393.393 0 00.097.17.646.646 0 00.122.146.962.962 0 00.682.293c.073 0 .122 0 .195-.025.073 0 .122-.024.17-.048.05-.025.123-.049.171-.098.049-.048.098-.073.146-.122a.646.646 0 00.122-.146c.025-.049.073-.097.098-.17a.459.459 0 00.048-.195c0-.049.025-.122.025-.195h4.459a.926.926 0 00.292.682.962.962 0 00.682.292c.073 0 .122 0 .195-.024a.352.352 0 00.17-.049c.05-.024.123-.048.171-.097.05-.049.098-.073.147-.122a.929.929 0 00.292-.682h2.46a2.984 2.984 0 012.974 2.972v2.486a1 1 0 00-.683.268.922.922 0 00-.292.682c0 .268.097.512.292.682.17.17.414.293.683.293v4.483a1 1 0 00-.683.268.922.922 0 00-.292.682c0 .073 0 .122.024.195.025.073.025.122.049.17.024.05.049.122.097.171a.648.648 0 00.122.146c.049.049.098.098.146.122.05.024.122.073.171.098a.453.453 0 00.17.048c.074 0 .122.025.196.025v2.46c.048 1.633-1.292 2.973-2.924 2.973z" fill="#4D3906"/><path d="M8.796 14.23a.978.978 0 00-.975.974c0 .536.439.975.975.975a.977.977 0 00.975-.975 1.01 1.01 0 00-.074-.39.971.971 0 00-.901-.585zM8.796 6.579a.977.977 0 00.975-.975.977.977 0 00-.975-.975.977.977 0 00-.975.975c0 .536.439.975.975.975zM8.796 7.821a.977.977 0 00-.975.975c0 .536.439.975.975.975a.977.977 0 00.975-.975 1.01 1.01 0 00-.074-.39.971.971 0 00-.901-.585zM8.796 17.421a.977.977 0 00-.975.975c0 .536.439.975.975.975a.978.978 0 00.975-.975.977.977 0 00-.975-.975zM8.796 12.963a.977.977 0 00.975-.975.978.978 0 00-.975-.975.978.978 0 00-.975.975c0 .536.439.975.975.975zM15.204 12.963a.977.977 0 00.975-.975.977.977 0 00-.975-.975.978.978 0 00-.975.975c0 .536.44.975.975.975zM15.204 7.821a.977.977 0 00-.975.975c0 .536.44.975.975.975a.977.977 0 00.975-.975c0-.146-.025-.268-.073-.39a.971.971 0 00-.902-.585zM15.204 14.23a.978.978 0 00-.975.974c0 .536.44.975.975.975a.977.977 0 00.975-.975c0-.146-.025-.268-.073-.39a.971.971 0 00-.902-.585zM15.204 6.579a.977.977 0 00.975-.975.977.977 0 00-.975-.975.977.977 0 00-.975.975c0 .536.44.975.975.975zM15.204 17.421a.978.978 0 00-.975.975c0 .536.44.975.975.975a.977.977 0 00.975-.975.977.977 0 00-.975-.975zM5.604 7.821a.977.977 0 00-.975.975c0 .536.439.975.975.975a.977.977 0 00.975-.975.977.977 0 00-.975-.975zM18.396 7.821a.977.977 0 00-.975.975c0 .536.439.975.975.975a.977.977 0 00.975-.975.977.977 0 00-.975-.975zM11.988 7.821a.977.977 0 00-.975.975c0 .536.439.975.975.975a.977.977 0 00.974-.975.962.962 0 00-.974-.975zM18.396 14.23a.978.978 0 00-.975.974c0 .536.439.975.975.975a.978.978 0 00.975-.975.978.978 0 00-.975-.975zM11.988 14.23a.978.978 0 00-.975.974c0 .536.439.975.975.975a.978.978 0 00.974-.975.962.962 0 00-.974-.975zM5.604 14.23a.978.978 0 00-.975.974c0 .536.439.975.975.975a.977.977 0 00.975-.975.978.978 0 00-.975-.975z" fill="#4D3906"/></svg>